%TF.GenerationSoftware,KiCad,Pcbnew,(5.1.9)-1*%
%TF.CreationDate,2021-02-17T22:30:47-05:00*%
%TF.ProjectId,dvi-sock,6476692d-736f-4636-9b2e-6b696361645f,rev?*%
%TF.SameCoordinates,Original*%
%TF.FileFunction,Copper,L2,Bot*%
%TF.FilePolarity,Positive*%
%FSLAX46Y46*%
G04 Gerber Fmt 4.6, Leading zero omitted, Abs format (unit mm)*
G04 Created by KiCad (PCBNEW (5.1.9)-1) date 2021-02-17 22:30:47*
%MOMM*%
%LPD*%
G01*
G04 APERTURE LIST*
%TA.AperFunction,ComponentPad*%
%ADD10C,1.900000*%
%TD*%
%TA.AperFunction,ComponentPad*%
%ADD11R,1.700000X1.700000*%
%TD*%
%TA.AperFunction,ComponentPad*%
%ADD12O,1.700000X1.700000*%
%TD*%
%TA.AperFunction,ComponentPad*%
%ADD13C,0.600000*%
%TD*%
%TA.AperFunction,ViaPad*%
%ADD14C,0.600000*%
%TD*%
%TA.AperFunction,Conductor*%
%ADD15C,0.100000*%
%TD*%
%TA.AperFunction,Conductor*%
%ADD16C,0.152400*%
%TD*%
G04 APERTURE END LIST*
D10*
%TO.P,J4,SH*%
%TO.N,GND*%
X164599960Y-77149400D03*
X164599960Y-92849400D03*
X159699960Y-77749400D03*
X159699960Y-92249400D03*
%TD*%
D11*
%TO.P,J5,1*%
%TO.N,+5V*%
X159900620Y-94800420D03*
D12*
%TO.P,J5,2*%
%TO.N,GND*%
X162440620Y-94800420D03*
%TD*%
%TO.P,J1,1*%
%TO.N,/PICO_D0+*%
%TA.AperFunction,ComponentPad*%
G36*
G01*
X142077440Y-95620260D02*
X142077440Y-93582260D01*
G75*
G02*
X142458440Y-93201260I381000J0D01*
G01*
X143220440Y-93201260D01*
G75*
G02*
X143601440Y-93582260I0J-381000D01*
G01*
X143601440Y-95620260D01*
G75*
G02*
X143220440Y-96001260I-381000J0D01*
G01*
X142458440Y-96001260D01*
G75*
G02*
X142077440Y-95620260I0J381000D01*
G01*
G37*
%TD.AperFunction*%
D13*
X142839440Y-95501260D03*
%TO.P,J1,2*%
%TO.N,/PICO_D0-*%
%TA.AperFunction,ComponentPad*%
G36*
G01*
X144617440Y-95620260D02*
X144617440Y-93582260D01*
G75*
G02*
X144998440Y-93201260I381000J0D01*
G01*
X145760440Y-93201260D01*
G75*
G02*
X146141440Y-93582260I0J-381000D01*
G01*
X146141440Y-95620260D01*
G75*
G02*
X145760440Y-96001260I-381000J0D01*
G01*
X144998440Y-96001260D01*
G75*
G02*
X144617440Y-95620260I0J381000D01*
G01*
G37*
%TD.AperFunction*%
X145379440Y-95501260D03*
%TO.P,J1,3*%
%TO.N,GND*%
X147919440Y-95501260D03*
%TA.AperFunction,ComponentPad*%
G36*
G01*
X147157440Y-95620260D02*
X147157440Y-93582260D01*
G75*
G02*
X147538440Y-93201260I381000J0D01*
G01*
X148300440Y-93201260D01*
G75*
G02*
X148681440Y-93582260I0J-381000D01*
G01*
X148681440Y-95620260D01*
G75*
G02*
X148300440Y-96001260I-381000J0D01*
G01*
X147538440Y-96001260D01*
G75*
G02*
X147157440Y-95620260I0J381000D01*
G01*
G37*
%TD.AperFunction*%
%TO.P,J1,4*%
%TO.N,/PICO_CK+*%
%TA.AperFunction,ComponentPad*%
G36*
G01*
X149697440Y-95620260D02*
X149697440Y-93582260D01*
G75*
G02*
X150078440Y-93201260I381000J0D01*
G01*
X150840440Y-93201260D01*
G75*
G02*
X151221440Y-93582260I0J-381000D01*
G01*
X151221440Y-95620260D01*
G75*
G02*
X150840440Y-96001260I-381000J0D01*
G01*
X150078440Y-96001260D01*
G75*
G02*
X149697440Y-95620260I0J381000D01*
G01*
G37*
%TD.AperFunction*%
X150459440Y-95501260D03*
%TO.P,J1,5*%
%TO.N,/PICO_CK-*%
%TA.AperFunction,ComponentPad*%
G36*
G01*
X152237440Y-95620260D02*
X152237440Y-93582260D01*
G75*
G02*
X152618440Y-93201260I381000J0D01*
G01*
X153380440Y-93201260D01*
G75*
G02*
X153761440Y-93582260I0J-381000D01*
G01*
X153761440Y-95620260D01*
G75*
G02*
X153380440Y-96001260I-381000J0D01*
G01*
X152618440Y-96001260D01*
G75*
G02*
X152237440Y-95620260I0J381000D01*
G01*
G37*
%TD.AperFunction*%
X152999440Y-95501260D03*
%TD*%
%TO.P,J3,1*%
%TO.N,Net-(J3-Pad1)*%
X154403860Y-87536020D03*
%TA.AperFunction,ComponentPad*%
G36*
G01*
X154522860Y-88298020D02*
X152484860Y-88298020D01*
G75*
G02*
X152103860Y-87917020I0J381000D01*
G01*
X152103860Y-87155020D01*
G75*
G02*
X152484860Y-86774020I381000J0D01*
G01*
X154522860Y-86774020D01*
G75*
G02*
X154903860Y-87155020I0J-381000D01*
G01*
X154903860Y-87917020D01*
G75*
G02*
X154522860Y-88298020I-381000J0D01*
G01*
G37*
%TD.AperFunction*%
%TO.P,J3,2*%
%TO.N,GND*%
%TA.AperFunction,ComponentPad*%
G36*
G01*
X154522860Y-85758020D02*
X152484860Y-85758020D01*
G75*
G02*
X152103860Y-85377020I0J381000D01*
G01*
X152103860Y-84615020D01*
G75*
G02*
X152484860Y-84234020I381000J0D01*
G01*
X154522860Y-84234020D01*
G75*
G02*
X154903860Y-84615020I0J-381000D01*
G01*
X154903860Y-85377020D01*
G75*
G02*
X154522860Y-85758020I-381000J0D01*
G01*
G37*
%TD.AperFunction*%
X154403860Y-84996020D03*
%TO.P,J3,3*%
%TO.N,Net-(J3-Pad3)*%
%TA.AperFunction,ComponentPad*%
G36*
G01*
X154522860Y-83218020D02*
X152484860Y-83218020D01*
G75*
G02*
X152103860Y-82837020I0J381000D01*
G01*
X152103860Y-82075020D01*
G75*
G02*
X152484860Y-81694020I381000J0D01*
G01*
X154522860Y-81694020D01*
G75*
G02*
X154903860Y-82075020I0J-381000D01*
G01*
X154903860Y-82837020D01*
G75*
G02*
X154522860Y-83218020I-381000J0D01*
G01*
G37*
%TD.AperFunction*%
X154403860Y-82456020D03*
%TD*%
%TO.P,J2,1*%
%TO.N,/PICO_D2+*%
%TA.AperFunction,ComponentPad*%
G36*
G01*
X153763980Y-74381940D02*
X153763980Y-76419940D01*
G75*
G02*
X153382980Y-76800940I-381000J0D01*
G01*
X152620980Y-76800940D01*
G75*
G02*
X152239980Y-76419940I0J381000D01*
G01*
X152239980Y-74381940D01*
G75*
G02*
X152620980Y-74000940I381000J0D01*
G01*
X153382980Y-74000940D01*
G75*
G02*
X153763980Y-74381940I0J-381000D01*
G01*
G37*
%TD.AperFunction*%
X153001980Y-74500940D03*
%TO.P,J2,2*%
%TO.N,/PICO_D2-*%
%TA.AperFunction,ComponentPad*%
G36*
G01*
X151223980Y-74381940D02*
X151223980Y-76419940D01*
G75*
G02*
X150842980Y-76800940I-381000J0D01*
G01*
X150080980Y-76800940D01*
G75*
G02*
X149699980Y-76419940I0J381000D01*
G01*
X149699980Y-74381940D01*
G75*
G02*
X150080980Y-74000940I381000J0D01*
G01*
X150842980Y-74000940D01*
G75*
G02*
X151223980Y-74381940I0J-381000D01*
G01*
G37*
%TD.AperFunction*%
X150461980Y-74500940D03*
%TO.P,J2,3*%
%TO.N,GND*%
X147921980Y-74500940D03*
%TA.AperFunction,ComponentPad*%
G36*
G01*
X148683980Y-74381940D02*
X148683980Y-76419940D01*
G75*
G02*
X148302980Y-76800940I-381000J0D01*
G01*
X147540980Y-76800940D01*
G75*
G02*
X147159980Y-76419940I0J381000D01*
G01*
X147159980Y-74381940D01*
G75*
G02*
X147540980Y-74000940I381000J0D01*
G01*
X148302980Y-74000940D01*
G75*
G02*
X148683980Y-74381940I0J-381000D01*
G01*
G37*
%TD.AperFunction*%
%TO.P,J2,4*%
%TO.N,/PICO_D1+*%
%TA.AperFunction,ComponentPad*%
G36*
G01*
X146143980Y-74381940D02*
X146143980Y-76419940D01*
G75*
G02*
X145762980Y-76800940I-381000J0D01*
G01*
X145000980Y-76800940D01*
G75*
G02*
X144619980Y-76419940I0J381000D01*
G01*
X144619980Y-74381940D01*
G75*
G02*
X145000980Y-74000940I381000J0D01*
G01*
X145762980Y-74000940D01*
G75*
G02*
X146143980Y-74381940I0J-381000D01*
G01*
G37*
%TD.AperFunction*%
X145381980Y-74500940D03*
%TO.P,J2,5*%
%TO.N,/PICO_D1-*%
%TA.AperFunction,ComponentPad*%
G36*
G01*
X143603980Y-74381940D02*
X143603980Y-76419940D01*
G75*
G02*
X143222980Y-76800940I-381000J0D01*
G01*
X142460980Y-76800940D01*
G75*
G02*
X142079980Y-76419940I0J381000D01*
G01*
X142079980Y-74381940D01*
G75*
G02*
X142460980Y-74000940I381000J0D01*
G01*
X143222980Y-74000940D01*
G75*
G02*
X143603980Y-74381940I0J-381000D01*
G01*
G37*
%TD.AperFunction*%
X142841980Y-74500940D03*
%TD*%
D14*
%TO.N,*%
X154500000Y-88800000D03*
%TO.N,GND*%
X155350000Y-82600000D03*
X143260000Y-77370000D03*
X156010000Y-89470000D03*
X158440000Y-79620000D03*
X154500000Y-86300000D03*
X150950000Y-92570000D03*
X160250000Y-83750000D03*
X157430000Y-80520000D03*
X157540000Y-89750000D03*
X160250000Y-82250000D03*
X160250000Y-80750000D03*
X160250000Y-88250000D03*
X157450000Y-82250000D03*
X154800000Y-74250000D03*
X152600000Y-92600000D03*
X157500000Y-83750000D03*
X154600000Y-81200000D03*
X143300000Y-92500000D03*
X142300000Y-85000000D03*
X154950000Y-95800000D03*
X144900000Y-92500000D03*
X152670000Y-77280000D03*
X155250000Y-79600000D03*
X158200000Y-74250000D03*
X154500000Y-83700000D03*
X160250000Y-85250000D03*
X161820000Y-90350000D03*
X157500000Y-85300000D03*
X160590000Y-90340000D03*
X158100000Y-95800000D03*
X144990000Y-77350000D03*
X150950000Y-77440000D03*
%TD*%
D15*
%TO.N,/PICO_CK-*%
X153000000Y-94600000D02*
X153000000Y-94600000D01*
%TO.N,/PICO_CK+*%
X150460000Y-94600000D02*
X150460000Y-94600000D01*
%TO.N,GND*%
X147920000Y-94600000D02*
X147920000Y-94600000D01*
X147920000Y-75400000D02*
X147920000Y-75400000D01*
X153500000Y-85000000D02*
X153500000Y-85000000D01*
%TO.N,/PICO_D0-*%
X145380000Y-94600000D02*
X145380000Y-94600000D01*
%TO.N,/PICO_D0+*%
X142840000Y-94600000D02*
X142840000Y-94600000D01*
%TO.N,/PICO_D1-*%
X142840000Y-75400000D02*
X142840000Y-75400000D01*
%TO.N,/PICO_D1+*%
X145380000Y-75400000D02*
X145380000Y-75400000D01*
%TO.N,/PICO_D2-*%
X150460000Y-75400000D02*
X150460000Y-75400000D01*
%TO.N,/PICO_D2+*%
X153000000Y-75400000D02*
X153000000Y-75400000D01*
%TO.N,Net-(J3-Pad3)*%
X153500000Y-82460000D02*
X153500000Y-82460000D01*
%TO.N,Net-(J3-Pad1)*%
X153500000Y-87540000D02*
X153500000Y-87540000D01*
%TD*%
D16*
%TO.N,GND*%
X144342441Y-74109164D02*
X144301879Y-74242880D01*
X144288183Y-74381940D01*
X144288183Y-76419940D01*
X144301879Y-76559000D01*
X144342441Y-76692716D01*
X144408311Y-76815949D01*
X144496956Y-76923964D01*
X144604971Y-77012609D01*
X144728204Y-77078479D01*
X144861920Y-77119041D01*
X145000980Y-77132737D01*
X145762980Y-77132737D01*
X145902040Y-77119041D01*
X146035756Y-77078479D01*
X146158989Y-77012609D01*
X146267004Y-76923964D01*
X146355649Y-76815949D01*
X146363671Y-76800940D01*
X146828182Y-76800940D01*
X146834557Y-76865671D01*
X146853439Y-76927914D01*
X146884100Y-76985277D01*
X146925363Y-77035557D01*
X146975643Y-77076820D01*
X147033006Y-77107481D01*
X147095249Y-77126363D01*
X147159980Y-77132738D01*
X147788630Y-77131140D01*
X147871180Y-77048590D01*
X147871180Y-75451740D01*
X147972780Y-75451740D01*
X147972780Y-77048590D01*
X148055330Y-77131140D01*
X148683980Y-77132738D01*
X148748711Y-77126363D01*
X148810954Y-77107481D01*
X148868317Y-77076820D01*
X148918597Y-77035557D01*
X148959860Y-76985277D01*
X148990521Y-76927914D01*
X149009403Y-76865671D01*
X149015778Y-76800940D01*
X149014180Y-75534290D01*
X148931630Y-75451740D01*
X147972780Y-75451740D01*
X147871180Y-75451740D01*
X146912330Y-75451740D01*
X146829780Y-75534290D01*
X146828182Y-76800940D01*
X146363671Y-76800940D01*
X146421519Y-76692716D01*
X146462081Y-76559000D01*
X146475777Y-76419940D01*
X146475777Y-74381940D01*
X146462081Y-74242880D01*
X146421519Y-74109164D01*
X146419400Y-74105200D01*
X146828314Y-74105200D01*
X146829780Y-75267590D01*
X146912330Y-75350140D01*
X147871180Y-75350140D01*
X147871180Y-75330140D01*
X147972780Y-75330140D01*
X147972780Y-75350140D01*
X148931630Y-75350140D01*
X149014180Y-75267590D01*
X149015646Y-74105200D01*
X149424560Y-74105200D01*
X149422441Y-74109164D01*
X149381879Y-74242880D01*
X149368183Y-74381940D01*
X149368183Y-76419940D01*
X149381879Y-76559000D01*
X149422441Y-76692716D01*
X149488311Y-76815949D01*
X149576956Y-76923964D01*
X149684971Y-77012609D01*
X149808204Y-77078479D01*
X149941920Y-77119041D01*
X150080980Y-77132737D01*
X150842980Y-77132737D01*
X150982040Y-77119041D01*
X151115756Y-77078479D01*
X151238989Y-77012609D01*
X151347004Y-76923964D01*
X151435649Y-76815949D01*
X151501519Y-76692716D01*
X151542081Y-76559000D01*
X151555777Y-76419940D01*
X151555777Y-74381940D01*
X151542081Y-74242880D01*
X151501519Y-74109164D01*
X151499400Y-74105200D01*
X151964560Y-74105200D01*
X151962441Y-74109164D01*
X151921879Y-74242880D01*
X151908183Y-74381940D01*
X151908183Y-76419940D01*
X151921879Y-76559000D01*
X151962441Y-76692716D01*
X152028311Y-76815949D01*
X152116956Y-76923964D01*
X152224971Y-77012609D01*
X152348204Y-77078479D01*
X152481920Y-77119041D01*
X152620980Y-77132737D01*
X153382980Y-77132737D01*
X153522040Y-77119041D01*
X153655756Y-77078479D01*
X153778989Y-77012609D01*
X153887004Y-76923964D01*
X153975649Y-76815949D01*
X154041519Y-76692716D01*
X154082081Y-76559000D01*
X154095777Y-76419940D01*
X154095777Y-74381940D01*
X154082081Y-74242880D01*
X154041519Y-74109164D01*
X154039400Y-74105200D01*
X155940499Y-74105200D01*
X155929736Y-74107896D01*
X155922580Y-74110066D01*
X155747022Y-74172881D01*
X155740113Y-74175743D01*
X155571558Y-74255464D01*
X155564963Y-74258989D01*
X155405033Y-74354847D01*
X155398816Y-74359002D01*
X155249052Y-74470075D01*
X155243271Y-74474819D01*
X155105116Y-74600036D01*
X155099829Y-74605323D01*
X154974612Y-74743478D01*
X154969868Y-74749259D01*
X154858795Y-74899023D01*
X154854640Y-74905240D01*
X154758782Y-75065170D01*
X154755257Y-75071765D01*
X154675536Y-75240320D01*
X154672674Y-75247229D01*
X154609859Y-75422787D01*
X154607689Y-75429943D01*
X154562383Y-75610812D01*
X154560924Y-75618147D01*
X154533566Y-75802586D01*
X154532833Y-75810027D01*
X154523683Y-75996259D01*
X154523683Y-76003737D01*
X154532833Y-76189969D01*
X154533566Y-76197410D01*
X154560924Y-76381849D01*
X154562383Y-76389184D01*
X154607689Y-76570053D01*
X154609859Y-76577209D01*
X154672674Y-76752767D01*
X154675536Y-76759676D01*
X154755257Y-76928231D01*
X154758782Y-76934826D01*
X154854640Y-77094756D01*
X154858795Y-77100973D01*
X154969868Y-77250737D01*
X154974612Y-77256518D01*
X155099829Y-77394673D01*
X155105116Y-77399960D01*
X155243271Y-77525177D01*
X155249052Y-77529921D01*
X155398816Y-77640994D01*
X155405033Y-77645149D01*
X155564963Y-77741007D01*
X155571558Y-77744532D01*
X155740113Y-77824253D01*
X155747022Y-77827115D01*
X155922580Y-77889930D01*
X155929736Y-77892100D01*
X156110605Y-77937406D01*
X156117940Y-77938865D01*
X156302379Y-77966223D01*
X156309820Y-77966956D01*
X156496052Y-77976106D01*
X156503530Y-77976106D01*
X156689762Y-77966956D01*
X156697203Y-77966223D01*
X156881642Y-77938865D01*
X156888977Y-77937406D01*
X157069846Y-77892100D01*
X157077002Y-77889930D01*
X157252560Y-77827115D01*
X157259469Y-77824253D01*
X157417103Y-77749697D01*
X158413566Y-77749697D01*
X158438341Y-78000655D01*
X158511601Y-78241956D01*
X158630197Y-78463836D01*
X158813551Y-78563967D01*
X159628118Y-77749400D01*
X159771802Y-77749400D01*
X160586369Y-78563967D01*
X160769723Y-78463836D01*
X160888547Y-78241408D01*
X160950862Y-78035809D01*
X163785393Y-78035809D01*
X163885524Y-78219163D01*
X164107952Y-78337987D01*
X164349288Y-78411134D01*
X164600257Y-78435794D01*
X164851215Y-78411019D01*
X165092516Y-78337759D01*
X165314396Y-78219163D01*
X165414527Y-78035809D01*
X164599960Y-77221242D01*
X163785393Y-78035809D01*
X160950862Y-78035809D01*
X160961694Y-78000072D01*
X160986354Y-77749103D01*
X160961579Y-77498145D01*
X160888319Y-77256844D01*
X160831049Y-77149697D01*
X163313566Y-77149697D01*
X163338341Y-77400655D01*
X163411601Y-77641956D01*
X163530197Y-77863836D01*
X163713551Y-77963967D01*
X164528118Y-77149400D01*
X164671802Y-77149400D01*
X165486369Y-77963967D01*
X165669723Y-77863836D01*
X165788547Y-77641408D01*
X165861694Y-77400072D01*
X165886354Y-77149103D01*
X165861579Y-76898145D01*
X165788319Y-76656844D01*
X165669723Y-76434964D01*
X165486369Y-76334833D01*
X164671802Y-77149400D01*
X164528118Y-77149400D01*
X163713551Y-76334833D01*
X163530197Y-76434964D01*
X163411373Y-76657392D01*
X163338226Y-76898728D01*
X163313566Y-77149697D01*
X160831049Y-77149697D01*
X160769723Y-77034964D01*
X160586369Y-76934833D01*
X159771802Y-77749400D01*
X159628118Y-77749400D01*
X158813551Y-76934833D01*
X158630197Y-77034964D01*
X158511373Y-77257392D01*
X158438226Y-77498728D01*
X158413566Y-77749697D01*
X157417103Y-77749697D01*
X157428024Y-77744532D01*
X157434619Y-77741007D01*
X157594549Y-77645149D01*
X157600766Y-77640994D01*
X157750530Y-77529921D01*
X157756311Y-77525177D01*
X157894466Y-77399960D01*
X157899753Y-77394673D01*
X158024970Y-77256518D01*
X158029714Y-77250737D01*
X158140787Y-77100973D01*
X158144942Y-77094756D01*
X158240800Y-76934826D01*
X158244325Y-76928231D01*
X158275181Y-76862991D01*
X158885393Y-76862991D01*
X159699960Y-77677558D01*
X160514527Y-76862991D01*
X160414396Y-76679637D01*
X160191968Y-76560813D01*
X159950632Y-76487666D01*
X159699663Y-76463006D01*
X159448705Y-76487781D01*
X159207404Y-76561041D01*
X158985524Y-76679637D01*
X158885393Y-76862991D01*
X158275181Y-76862991D01*
X158324046Y-76759676D01*
X158326908Y-76752767D01*
X158389723Y-76577209D01*
X158391893Y-76570053D01*
X158437199Y-76389184D01*
X158438658Y-76381849D01*
X158456288Y-76262991D01*
X163785393Y-76262991D01*
X164599960Y-77077558D01*
X165414527Y-76262991D01*
X165314396Y-76079637D01*
X165091968Y-75960813D01*
X164850632Y-75887666D01*
X164599663Y-75863006D01*
X164348705Y-75887781D01*
X164107404Y-75961041D01*
X163885524Y-76079637D01*
X163785393Y-76262991D01*
X158456288Y-76262991D01*
X158466016Y-76197410D01*
X158466749Y-76189969D01*
X158475899Y-76003737D01*
X158475899Y-75996259D01*
X158466749Y-75810027D01*
X158466016Y-75802586D01*
X158438658Y-75618147D01*
X158437199Y-75610812D01*
X158391893Y-75429943D01*
X158389723Y-75422787D01*
X158326908Y-75247229D01*
X158324046Y-75240320D01*
X158244325Y-75071765D01*
X158240800Y-75065170D01*
X158144942Y-74905240D01*
X158140787Y-74899023D01*
X158029714Y-74749259D01*
X158024970Y-74743478D01*
X157899753Y-74605323D01*
X157894466Y-74600036D01*
X157756311Y-74474819D01*
X157750530Y-74470075D01*
X157600766Y-74359002D01*
X157594549Y-74354847D01*
X157434619Y-74258989D01*
X157428024Y-74255464D01*
X157259469Y-74175743D01*
X157252560Y-74172881D01*
X157077002Y-74110066D01*
X157069846Y-74107896D01*
X157059083Y-74105200D01*
X166482628Y-74105200D01*
X166527796Y-74109629D01*
X166554527Y-74117699D01*
X166579191Y-74130813D01*
X166600828Y-74148460D01*
X166618634Y-74169983D01*
X166631916Y-74194549D01*
X166640175Y-74221227D01*
X166644800Y-74265236D01*
X166644801Y-95732618D01*
X166640371Y-95777796D01*
X166632300Y-95804529D01*
X166619189Y-95829188D01*
X166601539Y-95850828D01*
X166580015Y-95868635D01*
X166555453Y-95881916D01*
X166528773Y-95890175D01*
X166484764Y-95894800D01*
X162880510Y-95894800D01*
X162888132Y-95892488D01*
X163092585Y-95784199D01*
X163271983Y-95638104D01*
X163419433Y-95459817D01*
X163529267Y-95256190D01*
X163597265Y-95035048D01*
X163537179Y-94851220D01*
X162491420Y-94851220D01*
X162491420Y-94871220D01*
X162389820Y-94871220D01*
X162389820Y-94851220D01*
X161344061Y-94851220D01*
X161283975Y-95035048D01*
X161351973Y-95256190D01*
X161461807Y-95459817D01*
X161609257Y-95638104D01*
X161788655Y-95784199D01*
X161993108Y-95892488D01*
X162000730Y-95894800D01*
X160973339Y-95894800D01*
X160985236Y-95885036D01*
X161026499Y-95834757D01*
X161057160Y-95777393D01*
X161076042Y-95715150D01*
X161082417Y-95650420D01*
X161082417Y-94565792D01*
X161283975Y-94565792D01*
X161344061Y-94749620D01*
X162389820Y-94749620D01*
X162389820Y-93703946D01*
X162491420Y-93703946D01*
X162491420Y-94749620D01*
X163537179Y-94749620D01*
X163597265Y-94565792D01*
X163529267Y-94344650D01*
X163419433Y-94141023D01*
X163271983Y-93962736D01*
X163092585Y-93816641D01*
X162939972Y-93735809D01*
X163785393Y-93735809D01*
X163885524Y-93919163D01*
X164107952Y-94037987D01*
X164349288Y-94111134D01*
X164600257Y-94135794D01*
X164851215Y-94111019D01*
X165092516Y-94037759D01*
X165314396Y-93919163D01*
X165414527Y-93735809D01*
X164599960Y-92921242D01*
X163785393Y-93735809D01*
X162939972Y-93735809D01*
X162888132Y-93708352D01*
X162675247Y-93643778D01*
X162491420Y-93703946D01*
X162389820Y-93703946D01*
X162205993Y-93643778D01*
X161993108Y-93708352D01*
X161788655Y-93816641D01*
X161609257Y-93962736D01*
X161461807Y-94141023D01*
X161351973Y-94344650D01*
X161283975Y-94565792D01*
X161082417Y-94565792D01*
X161082417Y-93950420D01*
X161076042Y-93885690D01*
X161057160Y-93823447D01*
X161026499Y-93766083D01*
X160985236Y-93715804D01*
X160934957Y-93674541D01*
X160877593Y-93643880D01*
X160815350Y-93624998D01*
X160750620Y-93618623D01*
X159050620Y-93618623D01*
X158985890Y-93624998D01*
X158923647Y-93643880D01*
X158866283Y-93674541D01*
X158816004Y-93715804D01*
X158774741Y-93766083D01*
X158744080Y-93823447D01*
X158725198Y-93885690D01*
X158718823Y-93950420D01*
X158718823Y-95650420D01*
X158725198Y-95715150D01*
X158744080Y-95777393D01*
X158774741Y-95834757D01*
X158816004Y-95885036D01*
X158827901Y-95894800D01*
X157049339Y-95894800D01*
X157065603Y-95890726D01*
X157072759Y-95888556D01*
X157248317Y-95825741D01*
X157255226Y-95822879D01*
X157423781Y-95743158D01*
X157430376Y-95739633D01*
X157590306Y-95643775D01*
X157596523Y-95639620D01*
X157746287Y-95528547D01*
X157752068Y-95523803D01*
X157890223Y-95398586D01*
X157895510Y-95393299D01*
X158020727Y-95255144D01*
X158025471Y-95249363D01*
X158136544Y-95099599D01*
X158140699Y-95093382D01*
X158236557Y-94933452D01*
X158240082Y-94926857D01*
X158319803Y-94758302D01*
X158322665Y-94751393D01*
X158385480Y-94575835D01*
X158387650Y-94568679D01*
X158432956Y-94387810D01*
X158434415Y-94380475D01*
X158461773Y-94196036D01*
X158462506Y-94188595D01*
X158471656Y-94002363D01*
X158471656Y-93994885D01*
X158462506Y-93808653D01*
X158461773Y-93801212D01*
X158434415Y-93616773D01*
X158432956Y-93609438D01*
X158387650Y-93428569D01*
X158385480Y-93421413D01*
X158322665Y-93245855D01*
X158319803Y-93238946D01*
X158271023Y-93135809D01*
X158885393Y-93135809D01*
X158985524Y-93319163D01*
X159207952Y-93437987D01*
X159449288Y-93511134D01*
X159700257Y-93535794D01*
X159951215Y-93511019D01*
X160192516Y-93437759D01*
X160414396Y-93319163D01*
X160514527Y-93135809D01*
X159699960Y-92321242D01*
X158885393Y-93135809D01*
X158271023Y-93135809D01*
X158240082Y-93070391D01*
X158236557Y-93063796D01*
X158140699Y-92903866D01*
X158136544Y-92897649D01*
X158025471Y-92747885D01*
X158020727Y-92742104D01*
X157895510Y-92603949D01*
X157890223Y-92598662D01*
X157752068Y-92473445D01*
X157746287Y-92468701D01*
X157596523Y-92357628D01*
X157590306Y-92353473D01*
X157430376Y-92257615D01*
X157423781Y-92254090D01*
X157414493Y-92249697D01*
X158413566Y-92249697D01*
X158438341Y-92500655D01*
X158511601Y-92741956D01*
X158630197Y-92963836D01*
X158813551Y-93063967D01*
X159628118Y-92249400D01*
X159771802Y-92249400D01*
X160586369Y-93063967D01*
X160769723Y-92963836D01*
X160830697Y-92849697D01*
X163313566Y-92849697D01*
X163338341Y-93100655D01*
X163411601Y-93341956D01*
X163530197Y-93563836D01*
X163713551Y-93663967D01*
X164528118Y-92849400D01*
X164671802Y-92849400D01*
X165486369Y-93663967D01*
X165669723Y-93563836D01*
X165788547Y-93341408D01*
X165861694Y-93100072D01*
X165886354Y-92849103D01*
X165861579Y-92598145D01*
X165788319Y-92356844D01*
X165669723Y-92134964D01*
X165486369Y-92034833D01*
X164671802Y-92849400D01*
X164528118Y-92849400D01*
X163713551Y-92034833D01*
X163530197Y-92134964D01*
X163411373Y-92357392D01*
X163338226Y-92598728D01*
X163313566Y-92849697D01*
X160830697Y-92849697D01*
X160888547Y-92741408D01*
X160961694Y-92500072D01*
X160986354Y-92249103D01*
X160961579Y-91998145D01*
X160950907Y-91962991D01*
X163785393Y-91962991D01*
X164599960Y-92777558D01*
X165414527Y-91962991D01*
X165314396Y-91779637D01*
X165091968Y-91660813D01*
X164850632Y-91587666D01*
X164599663Y-91563006D01*
X164348705Y-91587781D01*
X164107404Y-91661041D01*
X163885524Y-91779637D01*
X163785393Y-91962991D01*
X160950907Y-91962991D01*
X160888319Y-91756844D01*
X160769723Y-91534964D01*
X160586369Y-91434833D01*
X159771802Y-92249400D01*
X159628118Y-92249400D01*
X158813551Y-91434833D01*
X158630197Y-91534964D01*
X158511373Y-91757392D01*
X158438226Y-91998728D01*
X158413566Y-92249697D01*
X157414493Y-92249697D01*
X157255226Y-92174369D01*
X157248317Y-92171507D01*
X157072759Y-92108692D01*
X157065603Y-92106522D01*
X156884734Y-92061216D01*
X156877399Y-92059757D01*
X156692960Y-92032399D01*
X156685519Y-92031666D01*
X156499287Y-92022516D01*
X156491809Y-92022516D01*
X156305577Y-92031666D01*
X156298136Y-92032399D01*
X156113697Y-92059757D01*
X156106362Y-92061216D01*
X155925493Y-92106522D01*
X155918337Y-92108692D01*
X155742779Y-92171507D01*
X155735870Y-92174369D01*
X155567315Y-92254090D01*
X155560720Y-92257615D01*
X155400790Y-92353473D01*
X155394573Y-92357628D01*
X155244809Y-92468701D01*
X155239028Y-92473445D01*
X155100873Y-92598662D01*
X155095586Y-92603949D01*
X154970369Y-92742104D01*
X154965625Y-92747885D01*
X154854552Y-92897649D01*
X154850397Y-92903866D01*
X154754539Y-93063796D01*
X154751014Y-93070391D01*
X154671293Y-93238946D01*
X154668431Y-93245855D01*
X154605616Y-93421413D01*
X154603446Y-93428569D01*
X154558140Y-93609438D01*
X154556681Y-93616773D01*
X154529323Y-93801212D01*
X154528590Y-93808653D01*
X154519440Y-93994885D01*
X154519440Y-94002363D01*
X154528590Y-94188595D01*
X154529323Y-94196036D01*
X154556681Y-94380475D01*
X154558140Y-94387810D01*
X154603446Y-94568679D01*
X154605616Y-94575835D01*
X154668431Y-94751393D01*
X154671293Y-94758302D01*
X154751014Y-94926857D01*
X154754539Y-94933452D01*
X154850397Y-95093382D01*
X154854552Y-95099599D01*
X154965625Y-95249363D01*
X154970369Y-95255144D01*
X155095586Y-95393299D01*
X155100873Y-95398586D01*
X155239028Y-95523803D01*
X155244809Y-95528547D01*
X155394573Y-95639620D01*
X155400790Y-95643775D01*
X155560720Y-95739633D01*
X155567315Y-95743158D01*
X155735870Y-95822879D01*
X155742779Y-95825741D01*
X155918337Y-95888556D01*
X155925493Y-95890726D01*
X155941757Y-95894800D01*
X154038036Y-95894800D01*
X154038979Y-95893036D01*
X154079541Y-95759320D01*
X154093237Y-95620260D01*
X154093237Y-93582260D01*
X154079541Y-93443200D01*
X154038979Y-93309484D01*
X153973109Y-93186251D01*
X153884464Y-93078236D01*
X153776449Y-92989591D01*
X153653216Y-92923721D01*
X153519500Y-92883159D01*
X153380440Y-92869463D01*
X152618440Y-92869463D01*
X152479380Y-92883159D01*
X152345664Y-92923721D01*
X152222431Y-92989591D01*
X152114416Y-93078236D01*
X152025771Y-93186251D01*
X151959901Y-93309484D01*
X151919339Y-93443200D01*
X151905643Y-93582260D01*
X151905643Y-95620260D01*
X151919339Y-95759320D01*
X151959901Y-95893036D01*
X151960844Y-95894800D01*
X151498036Y-95894800D01*
X151498979Y-95893036D01*
X151539541Y-95759320D01*
X151553237Y-95620260D01*
X151553237Y-93582260D01*
X151539541Y-93443200D01*
X151498979Y-93309484D01*
X151433109Y-93186251D01*
X151344464Y-93078236D01*
X151236449Y-92989591D01*
X151113216Y-92923721D01*
X150979500Y-92883159D01*
X150840440Y-92869463D01*
X150078440Y-92869463D01*
X149939380Y-92883159D01*
X149805664Y-92923721D01*
X149682431Y-92989591D01*
X149574416Y-93078236D01*
X149485771Y-93186251D01*
X149419901Y-93309484D01*
X149379339Y-93443200D01*
X149365643Y-93582260D01*
X149365643Y-95620260D01*
X149379339Y-95759320D01*
X149419901Y-95893036D01*
X149420844Y-95894800D01*
X149013104Y-95894800D01*
X149011640Y-94734610D01*
X148929090Y-94652060D01*
X147970240Y-94652060D01*
X147970240Y-94672060D01*
X147868640Y-94672060D01*
X147868640Y-94652060D01*
X146909790Y-94652060D01*
X146827240Y-94734610D01*
X146825776Y-95894800D01*
X146418036Y-95894800D01*
X146418979Y-95893036D01*
X146459541Y-95759320D01*
X146473237Y-95620260D01*
X146473237Y-93582260D01*
X146459541Y-93443200D01*
X146418979Y-93309484D01*
X146361132Y-93201260D01*
X146825642Y-93201260D01*
X146827240Y-94467910D01*
X146909790Y-94550460D01*
X147868640Y-94550460D01*
X147868640Y-92953610D01*
X147970240Y-92953610D01*
X147970240Y-94550460D01*
X148929090Y-94550460D01*
X149011640Y-94467910D01*
X149013238Y-93201260D01*
X149006863Y-93136529D01*
X148987981Y-93074286D01*
X148957320Y-93016923D01*
X148916057Y-92966643D01*
X148865777Y-92925380D01*
X148808414Y-92894719D01*
X148746171Y-92875837D01*
X148681440Y-92869462D01*
X148052790Y-92871060D01*
X147970240Y-92953610D01*
X147868640Y-92953610D01*
X147786090Y-92871060D01*
X147157440Y-92869462D01*
X147092709Y-92875837D01*
X147030466Y-92894719D01*
X146973103Y-92925380D01*
X146922823Y-92966643D01*
X146881560Y-93016923D01*
X146850899Y-93074286D01*
X146832017Y-93136529D01*
X146825642Y-93201260D01*
X146361132Y-93201260D01*
X146353109Y-93186251D01*
X146264464Y-93078236D01*
X146156449Y-92989591D01*
X146033216Y-92923721D01*
X145899500Y-92883159D01*
X145760440Y-92869463D01*
X144998440Y-92869463D01*
X144859380Y-92883159D01*
X144725664Y-92923721D01*
X144602431Y-92989591D01*
X144494416Y-93078236D01*
X144405771Y-93186251D01*
X144339901Y-93309484D01*
X144299339Y-93443200D01*
X144285643Y-93582260D01*
X144285643Y-95620260D01*
X144299339Y-95759320D01*
X144339901Y-95893036D01*
X144340844Y-95894800D01*
X143878036Y-95894800D01*
X143878979Y-95893036D01*
X143919541Y-95759320D01*
X143933237Y-95620260D01*
X143933237Y-93582260D01*
X143919541Y-93443200D01*
X143878979Y-93309484D01*
X143813109Y-93186251D01*
X143724464Y-93078236D01*
X143616449Y-92989591D01*
X143493216Y-92923721D01*
X143359500Y-92883159D01*
X143220440Y-92869463D01*
X142458440Y-92869463D01*
X142319380Y-92883159D01*
X142185664Y-92923721D01*
X142105200Y-92966730D01*
X142105200Y-91362991D01*
X158885393Y-91362991D01*
X159699960Y-92177558D01*
X160514527Y-91362991D01*
X160414396Y-91179637D01*
X160191968Y-91060813D01*
X159950632Y-90987666D01*
X159699663Y-90963006D01*
X159448705Y-90987781D01*
X159207404Y-91061041D01*
X158985524Y-91179637D01*
X158885393Y-91362991D01*
X142105200Y-91362991D01*
X142105200Y-87155020D01*
X151772063Y-87155020D01*
X151772063Y-87917020D01*
X151785759Y-88056080D01*
X151826321Y-88189796D01*
X151892191Y-88313029D01*
X151980836Y-88421044D01*
X152088851Y-88509689D01*
X152212084Y-88575559D01*
X152345800Y-88616121D01*
X152484860Y-88629817D01*
X153891305Y-88629817D01*
X153869800Y-88737931D01*
X153869800Y-88862069D01*
X153894018Y-88983822D01*
X153941524Y-89098512D01*
X154010492Y-89201729D01*
X154098271Y-89289508D01*
X154201488Y-89358476D01*
X154316178Y-89405982D01*
X154437931Y-89430200D01*
X154562069Y-89430200D01*
X154683822Y-89405982D01*
X154798512Y-89358476D01*
X154901729Y-89289508D01*
X154989508Y-89201729D01*
X155058476Y-89098512D01*
X155105982Y-88983822D01*
X155130200Y-88862069D01*
X155130200Y-88737931D01*
X155105982Y-88616178D01*
X155058476Y-88501488D01*
X155012572Y-88432789D01*
X155026884Y-88421044D01*
X155115529Y-88313029D01*
X155181399Y-88189796D01*
X155221961Y-88056080D01*
X155235657Y-87917020D01*
X155235657Y-87155020D01*
X155221961Y-87015960D01*
X155181399Y-86882244D01*
X155115529Y-86759011D01*
X155026884Y-86650996D01*
X154918869Y-86562351D01*
X154795636Y-86496481D01*
X154661920Y-86455919D01*
X154522860Y-86442223D01*
X152484860Y-86442223D01*
X152345800Y-86455919D01*
X152212084Y-86496481D01*
X152088851Y-86562351D01*
X151980836Y-86650996D01*
X151892191Y-86759011D01*
X151826321Y-86882244D01*
X151785759Y-87015960D01*
X151772063Y-87155020D01*
X142105200Y-87155020D01*
X142105200Y-85758020D01*
X151772062Y-85758020D01*
X151778437Y-85822751D01*
X151797319Y-85884994D01*
X151827980Y-85942357D01*
X151869243Y-85992637D01*
X151919523Y-86033900D01*
X151976886Y-86064561D01*
X152039129Y-86083443D01*
X152103860Y-86089818D01*
X153370510Y-86088220D01*
X153453060Y-86005670D01*
X153453060Y-85046820D01*
X151856210Y-85046820D01*
X151773660Y-85129370D01*
X151772062Y-85758020D01*
X142105200Y-85758020D01*
X142105200Y-84234020D01*
X151772062Y-84234020D01*
X151773660Y-84862670D01*
X151856210Y-84945220D01*
X153453060Y-84945220D01*
X153453060Y-83986370D01*
X153554660Y-83986370D01*
X153554660Y-84945220D01*
X153775536Y-84945220D01*
X153771144Y-85022000D01*
X153774622Y-85046820D01*
X153554660Y-85046820D01*
X153554660Y-86005670D01*
X153637210Y-86088220D01*
X154903860Y-86089818D01*
X154968591Y-86083443D01*
X155030834Y-86064561D01*
X155088197Y-86033900D01*
X155138477Y-85992637D01*
X155179740Y-85942357D01*
X155210401Y-85884994D01*
X155229283Y-85822751D01*
X155235658Y-85758020D01*
X155234060Y-85129370D01*
X155151510Y-85046820D01*
X155032184Y-85046820D01*
X155036576Y-84970040D01*
X155033098Y-84945220D01*
X155151510Y-84945220D01*
X155234060Y-84862670D01*
X155235658Y-84234020D01*
X155229283Y-84169289D01*
X155210401Y-84107046D01*
X155179740Y-84049683D01*
X155138477Y-83999403D01*
X155088197Y-83958140D01*
X155030834Y-83927479D01*
X154968591Y-83908597D01*
X154903860Y-83902222D01*
X153637210Y-83903820D01*
X153554660Y-83986370D01*
X153453060Y-83986370D01*
X153370510Y-83903820D01*
X152103860Y-83902222D01*
X152039129Y-83908597D01*
X151976886Y-83927479D01*
X151919523Y-83958140D01*
X151869243Y-83999403D01*
X151827980Y-84049683D01*
X151797319Y-84107046D01*
X151778437Y-84169289D01*
X151772062Y-84234020D01*
X142105200Y-84234020D01*
X142105200Y-82075020D01*
X151772063Y-82075020D01*
X151772063Y-82837020D01*
X151785759Y-82976080D01*
X151826321Y-83109796D01*
X151892191Y-83233029D01*
X151980836Y-83341044D01*
X152088851Y-83429689D01*
X152212084Y-83495559D01*
X152345800Y-83536121D01*
X152484860Y-83549817D01*
X154522860Y-83549817D01*
X154661920Y-83536121D01*
X154795636Y-83495559D01*
X154918869Y-83429689D01*
X155026884Y-83341044D01*
X155115529Y-83233029D01*
X155181399Y-83109796D01*
X155221961Y-82976080D01*
X155235657Y-82837020D01*
X155235657Y-82075020D01*
X155221961Y-81935960D01*
X155181399Y-81802244D01*
X155115529Y-81679011D01*
X155026884Y-81570996D01*
X154918869Y-81482351D01*
X154795636Y-81416481D01*
X154661920Y-81375919D01*
X154522860Y-81362223D01*
X152484860Y-81362223D01*
X152345800Y-81375919D01*
X152212084Y-81416481D01*
X152088851Y-81482351D01*
X151980836Y-81570996D01*
X151892191Y-81679011D01*
X151826321Y-81802244D01*
X151785759Y-81935960D01*
X151772063Y-82075020D01*
X142105200Y-82075020D01*
X142105200Y-78635809D01*
X158885393Y-78635809D01*
X158985524Y-78819163D01*
X159207952Y-78937987D01*
X159449288Y-79011134D01*
X159700257Y-79035794D01*
X159951215Y-79011019D01*
X160192516Y-78937759D01*
X160414396Y-78819163D01*
X160514527Y-78635809D01*
X159699960Y-77821242D01*
X158885393Y-78635809D01*
X142105200Y-78635809D01*
X142105200Y-77034112D01*
X142188204Y-77078479D01*
X142321920Y-77119041D01*
X142460980Y-77132737D01*
X143222980Y-77132737D01*
X143362040Y-77119041D01*
X143495756Y-77078479D01*
X143618989Y-77012609D01*
X143727004Y-76923964D01*
X143815649Y-76815949D01*
X143881519Y-76692716D01*
X143922081Y-76559000D01*
X143935777Y-76419940D01*
X143935777Y-74381940D01*
X143922081Y-74242880D01*
X143881519Y-74109164D01*
X143879400Y-74105200D01*
X144344560Y-74105200D01*
X144342441Y-74109164D01*
%TA.AperFunction,Conductor*%
D15*
G36*
X144342441Y-74109164D02*
G01*
X144301879Y-74242880D01*
X144288183Y-74381940D01*
X144288183Y-76419940D01*
X144301879Y-76559000D01*
X144342441Y-76692716D01*
X144408311Y-76815949D01*
X144496956Y-76923964D01*
X144604971Y-77012609D01*
X144728204Y-77078479D01*
X144861920Y-77119041D01*
X145000980Y-77132737D01*
X145762980Y-77132737D01*
X145902040Y-77119041D01*
X146035756Y-77078479D01*
X146158989Y-77012609D01*
X146267004Y-76923964D01*
X146355649Y-76815949D01*
X146363671Y-76800940D01*
X146828182Y-76800940D01*
X146834557Y-76865671D01*
X146853439Y-76927914D01*
X146884100Y-76985277D01*
X146925363Y-77035557D01*
X146975643Y-77076820D01*
X147033006Y-77107481D01*
X147095249Y-77126363D01*
X147159980Y-77132738D01*
X147788630Y-77131140D01*
X147871180Y-77048590D01*
X147871180Y-75451740D01*
X147972780Y-75451740D01*
X147972780Y-77048590D01*
X148055330Y-77131140D01*
X148683980Y-77132738D01*
X148748711Y-77126363D01*
X148810954Y-77107481D01*
X148868317Y-77076820D01*
X148918597Y-77035557D01*
X148959860Y-76985277D01*
X148990521Y-76927914D01*
X149009403Y-76865671D01*
X149015778Y-76800940D01*
X149014180Y-75534290D01*
X148931630Y-75451740D01*
X147972780Y-75451740D01*
X147871180Y-75451740D01*
X146912330Y-75451740D01*
X146829780Y-75534290D01*
X146828182Y-76800940D01*
X146363671Y-76800940D01*
X146421519Y-76692716D01*
X146462081Y-76559000D01*
X146475777Y-76419940D01*
X146475777Y-74381940D01*
X146462081Y-74242880D01*
X146421519Y-74109164D01*
X146419400Y-74105200D01*
X146828314Y-74105200D01*
X146829780Y-75267590D01*
X146912330Y-75350140D01*
X147871180Y-75350140D01*
X147871180Y-75330140D01*
X147972780Y-75330140D01*
X147972780Y-75350140D01*
X148931630Y-75350140D01*
X149014180Y-75267590D01*
X149015646Y-74105200D01*
X149424560Y-74105200D01*
X149422441Y-74109164D01*
X149381879Y-74242880D01*
X149368183Y-74381940D01*
X149368183Y-76419940D01*
X149381879Y-76559000D01*
X149422441Y-76692716D01*
X149488311Y-76815949D01*
X149576956Y-76923964D01*
X149684971Y-77012609D01*
X149808204Y-77078479D01*
X149941920Y-77119041D01*
X150080980Y-77132737D01*
X150842980Y-77132737D01*
X150982040Y-77119041D01*
X151115756Y-77078479D01*
X151238989Y-77012609D01*
X151347004Y-76923964D01*
X151435649Y-76815949D01*
X151501519Y-76692716D01*
X151542081Y-76559000D01*
X151555777Y-76419940D01*
X151555777Y-74381940D01*
X151542081Y-74242880D01*
X151501519Y-74109164D01*
X151499400Y-74105200D01*
X151964560Y-74105200D01*
X151962441Y-74109164D01*
X151921879Y-74242880D01*
X151908183Y-74381940D01*
X151908183Y-76419940D01*
X151921879Y-76559000D01*
X151962441Y-76692716D01*
X152028311Y-76815949D01*
X152116956Y-76923964D01*
X152224971Y-77012609D01*
X152348204Y-77078479D01*
X152481920Y-77119041D01*
X152620980Y-77132737D01*
X153382980Y-77132737D01*
X153522040Y-77119041D01*
X153655756Y-77078479D01*
X153778989Y-77012609D01*
X153887004Y-76923964D01*
X153975649Y-76815949D01*
X154041519Y-76692716D01*
X154082081Y-76559000D01*
X154095777Y-76419940D01*
X154095777Y-74381940D01*
X154082081Y-74242880D01*
X154041519Y-74109164D01*
X154039400Y-74105200D01*
X155940499Y-74105200D01*
X155929736Y-74107896D01*
X155922580Y-74110066D01*
X155747022Y-74172881D01*
X155740113Y-74175743D01*
X155571558Y-74255464D01*
X155564963Y-74258989D01*
X155405033Y-74354847D01*
X155398816Y-74359002D01*
X155249052Y-74470075D01*
X155243271Y-74474819D01*
X155105116Y-74600036D01*
X155099829Y-74605323D01*
X154974612Y-74743478D01*
X154969868Y-74749259D01*
X154858795Y-74899023D01*
X154854640Y-74905240D01*
X154758782Y-75065170D01*
X154755257Y-75071765D01*
X154675536Y-75240320D01*
X154672674Y-75247229D01*
X154609859Y-75422787D01*
X154607689Y-75429943D01*
X154562383Y-75610812D01*
X154560924Y-75618147D01*
X154533566Y-75802586D01*
X154532833Y-75810027D01*
X154523683Y-75996259D01*
X154523683Y-76003737D01*
X154532833Y-76189969D01*
X154533566Y-76197410D01*
X154560924Y-76381849D01*
X154562383Y-76389184D01*
X154607689Y-76570053D01*
X154609859Y-76577209D01*
X154672674Y-76752767D01*
X154675536Y-76759676D01*
X154755257Y-76928231D01*
X154758782Y-76934826D01*
X154854640Y-77094756D01*
X154858795Y-77100973D01*
X154969868Y-77250737D01*
X154974612Y-77256518D01*
X155099829Y-77394673D01*
X155105116Y-77399960D01*
X155243271Y-77525177D01*
X155249052Y-77529921D01*
X155398816Y-77640994D01*
X155405033Y-77645149D01*
X155564963Y-77741007D01*
X155571558Y-77744532D01*
X155740113Y-77824253D01*
X155747022Y-77827115D01*
X155922580Y-77889930D01*
X155929736Y-77892100D01*
X156110605Y-77937406D01*
X156117940Y-77938865D01*
X156302379Y-77966223D01*
X156309820Y-77966956D01*
X156496052Y-77976106D01*
X156503530Y-77976106D01*
X156689762Y-77966956D01*
X156697203Y-77966223D01*
X156881642Y-77938865D01*
X156888977Y-77937406D01*
X157069846Y-77892100D01*
X157077002Y-77889930D01*
X157252560Y-77827115D01*
X157259469Y-77824253D01*
X157417103Y-77749697D01*
X158413566Y-77749697D01*
X158438341Y-78000655D01*
X158511601Y-78241956D01*
X158630197Y-78463836D01*
X158813551Y-78563967D01*
X159628118Y-77749400D01*
X159771802Y-77749400D01*
X160586369Y-78563967D01*
X160769723Y-78463836D01*
X160888547Y-78241408D01*
X160950862Y-78035809D01*
X163785393Y-78035809D01*
X163885524Y-78219163D01*
X164107952Y-78337987D01*
X164349288Y-78411134D01*
X164600257Y-78435794D01*
X164851215Y-78411019D01*
X165092516Y-78337759D01*
X165314396Y-78219163D01*
X165414527Y-78035809D01*
X164599960Y-77221242D01*
X163785393Y-78035809D01*
X160950862Y-78035809D01*
X160961694Y-78000072D01*
X160986354Y-77749103D01*
X160961579Y-77498145D01*
X160888319Y-77256844D01*
X160831049Y-77149697D01*
X163313566Y-77149697D01*
X163338341Y-77400655D01*
X163411601Y-77641956D01*
X163530197Y-77863836D01*
X163713551Y-77963967D01*
X164528118Y-77149400D01*
X164671802Y-77149400D01*
X165486369Y-77963967D01*
X165669723Y-77863836D01*
X165788547Y-77641408D01*
X165861694Y-77400072D01*
X165886354Y-77149103D01*
X165861579Y-76898145D01*
X165788319Y-76656844D01*
X165669723Y-76434964D01*
X165486369Y-76334833D01*
X164671802Y-77149400D01*
X164528118Y-77149400D01*
X163713551Y-76334833D01*
X163530197Y-76434964D01*
X163411373Y-76657392D01*
X163338226Y-76898728D01*
X163313566Y-77149697D01*
X160831049Y-77149697D01*
X160769723Y-77034964D01*
X160586369Y-76934833D01*
X159771802Y-77749400D01*
X159628118Y-77749400D01*
X158813551Y-76934833D01*
X158630197Y-77034964D01*
X158511373Y-77257392D01*
X158438226Y-77498728D01*
X158413566Y-77749697D01*
X157417103Y-77749697D01*
X157428024Y-77744532D01*
X157434619Y-77741007D01*
X157594549Y-77645149D01*
X157600766Y-77640994D01*
X157750530Y-77529921D01*
X157756311Y-77525177D01*
X157894466Y-77399960D01*
X157899753Y-77394673D01*
X158024970Y-77256518D01*
X158029714Y-77250737D01*
X158140787Y-77100973D01*
X158144942Y-77094756D01*
X158240800Y-76934826D01*
X158244325Y-76928231D01*
X158275181Y-76862991D01*
X158885393Y-76862991D01*
X159699960Y-77677558D01*
X160514527Y-76862991D01*
X160414396Y-76679637D01*
X160191968Y-76560813D01*
X159950632Y-76487666D01*
X159699663Y-76463006D01*
X159448705Y-76487781D01*
X159207404Y-76561041D01*
X158985524Y-76679637D01*
X158885393Y-76862991D01*
X158275181Y-76862991D01*
X158324046Y-76759676D01*
X158326908Y-76752767D01*
X158389723Y-76577209D01*
X158391893Y-76570053D01*
X158437199Y-76389184D01*
X158438658Y-76381849D01*
X158456288Y-76262991D01*
X163785393Y-76262991D01*
X164599960Y-77077558D01*
X165414527Y-76262991D01*
X165314396Y-76079637D01*
X165091968Y-75960813D01*
X164850632Y-75887666D01*
X164599663Y-75863006D01*
X164348705Y-75887781D01*
X164107404Y-75961041D01*
X163885524Y-76079637D01*
X163785393Y-76262991D01*
X158456288Y-76262991D01*
X158466016Y-76197410D01*
X158466749Y-76189969D01*
X158475899Y-76003737D01*
X158475899Y-75996259D01*
X158466749Y-75810027D01*
X158466016Y-75802586D01*
X158438658Y-75618147D01*
X158437199Y-75610812D01*
X158391893Y-75429943D01*
X158389723Y-75422787D01*
X158326908Y-75247229D01*
X158324046Y-75240320D01*
X158244325Y-75071765D01*
X158240800Y-75065170D01*
X158144942Y-74905240D01*
X158140787Y-74899023D01*
X158029714Y-74749259D01*
X158024970Y-74743478D01*
X157899753Y-74605323D01*
X157894466Y-74600036D01*
X157756311Y-74474819D01*
X157750530Y-74470075D01*
X157600766Y-74359002D01*
X157594549Y-74354847D01*
X157434619Y-74258989D01*
X157428024Y-74255464D01*
X157259469Y-74175743D01*
X157252560Y-74172881D01*
X157077002Y-74110066D01*
X157069846Y-74107896D01*
X157059083Y-74105200D01*
X166482628Y-74105200D01*
X166527796Y-74109629D01*
X166554527Y-74117699D01*
X166579191Y-74130813D01*
X166600828Y-74148460D01*
X166618634Y-74169983D01*
X166631916Y-74194549D01*
X166640175Y-74221227D01*
X166644800Y-74265236D01*
X166644801Y-95732618D01*
X166640371Y-95777796D01*
X166632300Y-95804529D01*
X166619189Y-95829188D01*
X166601539Y-95850828D01*
X166580015Y-95868635D01*
X166555453Y-95881916D01*
X166528773Y-95890175D01*
X166484764Y-95894800D01*
X162880510Y-95894800D01*
X162888132Y-95892488D01*
X163092585Y-95784199D01*
X163271983Y-95638104D01*
X163419433Y-95459817D01*
X163529267Y-95256190D01*
X163597265Y-95035048D01*
X163537179Y-94851220D01*
X162491420Y-94851220D01*
X162491420Y-94871220D01*
X162389820Y-94871220D01*
X162389820Y-94851220D01*
X161344061Y-94851220D01*
X161283975Y-95035048D01*
X161351973Y-95256190D01*
X161461807Y-95459817D01*
X161609257Y-95638104D01*
X161788655Y-95784199D01*
X161993108Y-95892488D01*
X162000730Y-95894800D01*
X160973339Y-95894800D01*
X160985236Y-95885036D01*
X161026499Y-95834757D01*
X161057160Y-95777393D01*
X161076042Y-95715150D01*
X161082417Y-95650420D01*
X161082417Y-94565792D01*
X161283975Y-94565792D01*
X161344061Y-94749620D01*
X162389820Y-94749620D01*
X162389820Y-93703946D01*
X162491420Y-93703946D01*
X162491420Y-94749620D01*
X163537179Y-94749620D01*
X163597265Y-94565792D01*
X163529267Y-94344650D01*
X163419433Y-94141023D01*
X163271983Y-93962736D01*
X163092585Y-93816641D01*
X162939972Y-93735809D01*
X163785393Y-93735809D01*
X163885524Y-93919163D01*
X164107952Y-94037987D01*
X164349288Y-94111134D01*
X164600257Y-94135794D01*
X164851215Y-94111019D01*
X165092516Y-94037759D01*
X165314396Y-93919163D01*
X165414527Y-93735809D01*
X164599960Y-92921242D01*
X163785393Y-93735809D01*
X162939972Y-93735809D01*
X162888132Y-93708352D01*
X162675247Y-93643778D01*
X162491420Y-93703946D01*
X162389820Y-93703946D01*
X162205993Y-93643778D01*
X161993108Y-93708352D01*
X161788655Y-93816641D01*
X161609257Y-93962736D01*
X161461807Y-94141023D01*
X161351973Y-94344650D01*
X161283975Y-94565792D01*
X161082417Y-94565792D01*
X161082417Y-93950420D01*
X161076042Y-93885690D01*
X161057160Y-93823447D01*
X161026499Y-93766083D01*
X160985236Y-93715804D01*
X160934957Y-93674541D01*
X160877593Y-93643880D01*
X160815350Y-93624998D01*
X160750620Y-93618623D01*
X159050620Y-93618623D01*
X158985890Y-93624998D01*
X158923647Y-93643880D01*
X158866283Y-93674541D01*
X158816004Y-93715804D01*
X158774741Y-93766083D01*
X158744080Y-93823447D01*
X158725198Y-93885690D01*
X158718823Y-93950420D01*
X158718823Y-95650420D01*
X158725198Y-95715150D01*
X158744080Y-95777393D01*
X158774741Y-95834757D01*
X158816004Y-95885036D01*
X158827901Y-95894800D01*
X157049339Y-95894800D01*
X157065603Y-95890726D01*
X157072759Y-95888556D01*
X157248317Y-95825741D01*
X157255226Y-95822879D01*
X157423781Y-95743158D01*
X157430376Y-95739633D01*
X157590306Y-95643775D01*
X157596523Y-95639620D01*
X157746287Y-95528547D01*
X157752068Y-95523803D01*
X157890223Y-95398586D01*
X157895510Y-95393299D01*
X158020727Y-95255144D01*
X158025471Y-95249363D01*
X158136544Y-95099599D01*
X158140699Y-95093382D01*
X158236557Y-94933452D01*
X158240082Y-94926857D01*
X158319803Y-94758302D01*
X158322665Y-94751393D01*
X158385480Y-94575835D01*
X158387650Y-94568679D01*
X158432956Y-94387810D01*
X158434415Y-94380475D01*
X158461773Y-94196036D01*
X158462506Y-94188595D01*
X158471656Y-94002363D01*
X158471656Y-93994885D01*
X158462506Y-93808653D01*
X158461773Y-93801212D01*
X158434415Y-93616773D01*
X158432956Y-93609438D01*
X158387650Y-93428569D01*
X158385480Y-93421413D01*
X158322665Y-93245855D01*
X158319803Y-93238946D01*
X158271023Y-93135809D01*
X158885393Y-93135809D01*
X158985524Y-93319163D01*
X159207952Y-93437987D01*
X159449288Y-93511134D01*
X159700257Y-93535794D01*
X159951215Y-93511019D01*
X160192516Y-93437759D01*
X160414396Y-93319163D01*
X160514527Y-93135809D01*
X159699960Y-92321242D01*
X158885393Y-93135809D01*
X158271023Y-93135809D01*
X158240082Y-93070391D01*
X158236557Y-93063796D01*
X158140699Y-92903866D01*
X158136544Y-92897649D01*
X158025471Y-92747885D01*
X158020727Y-92742104D01*
X157895510Y-92603949D01*
X157890223Y-92598662D01*
X157752068Y-92473445D01*
X157746287Y-92468701D01*
X157596523Y-92357628D01*
X157590306Y-92353473D01*
X157430376Y-92257615D01*
X157423781Y-92254090D01*
X157414493Y-92249697D01*
X158413566Y-92249697D01*
X158438341Y-92500655D01*
X158511601Y-92741956D01*
X158630197Y-92963836D01*
X158813551Y-93063967D01*
X159628118Y-92249400D01*
X159771802Y-92249400D01*
X160586369Y-93063967D01*
X160769723Y-92963836D01*
X160830697Y-92849697D01*
X163313566Y-92849697D01*
X163338341Y-93100655D01*
X163411601Y-93341956D01*
X163530197Y-93563836D01*
X163713551Y-93663967D01*
X164528118Y-92849400D01*
X164671802Y-92849400D01*
X165486369Y-93663967D01*
X165669723Y-93563836D01*
X165788547Y-93341408D01*
X165861694Y-93100072D01*
X165886354Y-92849103D01*
X165861579Y-92598145D01*
X165788319Y-92356844D01*
X165669723Y-92134964D01*
X165486369Y-92034833D01*
X164671802Y-92849400D01*
X164528118Y-92849400D01*
X163713551Y-92034833D01*
X163530197Y-92134964D01*
X163411373Y-92357392D01*
X163338226Y-92598728D01*
X163313566Y-92849697D01*
X160830697Y-92849697D01*
X160888547Y-92741408D01*
X160961694Y-92500072D01*
X160986354Y-92249103D01*
X160961579Y-91998145D01*
X160950907Y-91962991D01*
X163785393Y-91962991D01*
X164599960Y-92777558D01*
X165414527Y-91962991D01*
X165314396Y-91779637D01*
X165091968Y-91660813D01*
X164850632Y-91587666D01*
X164599663Y-91563006D01*
X164348705Y-91587781D01*
X164107404Y-91661041D01*
X163885524Y-91779637D01*
X163785393Y-91962991D01*
X160950907Y-91962991D01*
X160888319Y-91756844D01*
X160769723Y-91534964D01*
X160586369Y-91434833D01*
X159771802Y-92249400D01*
X159628118Y-92249400D01*
X158813551Y-91434833D01*
X158630197Y-91534964D01*
X158511373Y-91757392D01*
X158438226Y-91998728D01*
X158413566Y-92249697D01*
X157414493Y-92249697D01*
X157255226Y-92174369D01*
X157248317Y-92171507D01*
X157072759Y-92108692D01*
X157065603Y-92106522D01*
X156884734Y-92061216D01*
X156877399Y-92059757D01*
X156692960Y-92032399D01*
X156685519Y-92031666D01*
X156499287Y-92022516D01*
X156491809Y-92022516D01*
X156305577Y-92031666D01*
X156298136Y-92032399D01*
X156113697Y-92059757D01*
X156106362Y-92061216D01*
X155925493Y-92106522D01*
X155918337Y-92108692D01*
X155742779Y-92171507D01*
X155735870Y-92174369D01*
X155567315Y-92254090D01*
X155560720Y-92257615D01*
X155400790Y-92353473D01*
X155394573Y-92357628D01*
X155244809Y-92468701D01*
X155239028Y-92473445D01*
X155100873Y-92598662D01*
X155095586Y-92603949D01*
X154970369Y-92742104D01*
X154965625Y-92747885D01*
X154854552Y-92897649D01*
X154850397Y-92903866D01*
X154754539Y-93063796D01*
X154751014Y-93070391D01*
X154671293Y-93238946D01*
X154668431Y-93245855D01*
X154605616Y-93421413D01*
X154603446Y-93428569D01*
X154558140Y-93609438D01*
X154556681Y-93616773D01*
X154529323Y-93801212D01*
X154528590Y-93808653D01*
X154519440Y-93994885D01*
X154519440Y-94002363D01*
X154528590Y-94188595D01*
X154529323Y-94196036D01*
X154556681Y-94380475D01*
X154558140Y-94387810D01*
X154603446Y-94568679D01*
X154605616Y-94575835D01*
X154668431Y-94751393D01*
X154671293Y-94758302D01*
X154751014Y-94926857D01*
X154754539Y-94933452D01*
X154850397Y-95093382D01*
X154854552Y-95099599D01*
X154965625Y-95249363D01*
X154970369Y-95255144D01*
X155095586Y-95393299D01*
X155100873Y-95398586D01*
X155239028Y-95523803D01*
X155244809Y-95528547D01*
X155394573Y-95639620D01*
X155400790Y-95643775D01*
X155560720Y-95739633D01*
X155567315Y-95743158D01*
X155735870Y-95822879D01*
X155742779Y-95825741D01*
X155918337Y-95888556D01*
X155925493Y-95890726D01*
X155941757Y-95894800D01*
X154038036Y-95894800D01*
X154038979Y-95893036D01*
X154079541Y-95759320D01*
X154093237Y-95620260D01*
X154093237Y-93582260D01*
X154079541Y-93443200D01*
X154038979Y-93309484D01*
X153973109Y-93186251D01*
X153884464Y-93078236D01*
X153776449Y-92989591D01*
X153653216Y-92923721D01*
X153519500Y-92883159D01*
X153380440Y-92869463D01*
X152618440Y-92869463D01*
X152479380Y-92883159D01*
X152345664Y-92923721D01*
X152222431Y-92989591D01*
X152114416Y-93078236D01*
X152025771Y-93186251D01*
X151959901Y-93309484D01*
X151919339Y-93443200D01*
X151905643Y-93582260D01*
X151905643Y-95620260D01*
X151919339Y-95759320D01*
X151959901Y-95893036D01*
X151960844Y-95894800D01*
X151498036Y-95894800D01*
X151498979Y-95893036D01*
X151539541Y-95759320D01*
X151553237Y-95620260D01*
X151553237Y-93582260D01*
X151539541Y-93443200D01*
X151498979Y-93309484D01*
X151433109Y-93186251D01*
X151344464Y-93078236D01*
X151236449Y-92989591D01*
X151113216Y-92923721D01*
X150979500Y-92883159D01*
X150840440Y-92869463D01*
X150078440Y-92869463D01*
X149939380Y-92883159D01*
X149805664Y-92923721D01*
X149682431Y-92989591D01*
X149574416Y-93078236D01*
X149485771Y-93186251D01*
X149419901Y-93309484D01*
X149379339Y-93443200D01*
X149365643Y-93582260D01*
X149365643Y-95620260D01*
X149379339Y-95759320D01*
X149419901Y-95893036D01*
X149420844Y-95894800D01*
X149013104Y-95894800D01*
X149011640Y-94734610D01*
X148929090Y-94652060D01*
X147970240Y-94652060D01*
X147970240Y-94672060D01*
X147868640Y-94672060D01*
X147868640Y-94652060D01*
X146909790Y-94652060D01*
X146827240Y-94734610D01*
X146825776Y-95894800D01*
X146418036Y-95894800D01*
X146418979Y-95893036D01*
X146459541Y-95759320D01*
X146473237Y-95620260D01*
X146473237Y-93582260D01*
X146459541Y-93443200D01*
X146418979Y-93309484D01*
X146361132Y-93201260D01*
X146825642Y-93201260D01*
X146827240Y-94467910D01*
X146909790Y-94550460D01*
X147868640Y-94550460D01*
X147868640Y-92953610D01*
X147970240Y-92953610D01*
X147970240Y-94550460D01*
X148929090Y-94550460D01*
X149011640Y-94467910D01*
X149013238Y-93201260D01*
X149006863Y-93136529D01*
X148987981Y-93074286D01*
X148957320Y-93016923D01*
X148916057Y-92966643D01*
X148865777Y-92925380D01*
X148808414Y-92894719D01*
X148746171Y-92875837D01*
X148681440Y-92869462D01*
X148052790Y-92871060D01*
X147970240Y-92953610D01*
X147868640Y-92953610D01*
X147786090Y-92871060D01*
X147157440Y-92869462D01*
X147092709Y-92875837D01*
X147030466Y-92894719D01*
X146973103Y-92925380D01*
X146922823Y-92966643D01*
X146881560Y-93016923D01*
X146850899Y-93074286D01*
X146832017Y-93136529D01*
X146825642Y-93201260D01*
X146361132Y-93201260D01*
X146353109Y-93186251D01*
X146264464Y-93078236D01*
X146156449Y-92989591D01*
X146033216Y-92923721D01*
X145899500Y-92883159D01*
X145760440Y-92869463D01*
X144998440Y-92869463D01*
X144859380Y-92883159D01*
X144725664Y-92923721D01*
X144602431Y-92989591D01*
X144494416Y-93078236D01*
X144405771Y-93186251D01*
X144339901Y-93309484D01*
X144299339Y-93443200D01*
X144285643Y-93582260D01*
X144285643Y-95620260D01*
X144299339Y-95759320D01*
X144339901Y-95893036D01*
X144340844Y-95894800D01*
X143878036Y-95894800D01*
X143878979Y-95893036D01*
X143919541Y-95759320D01*
X143933237Y-95620260D01*
X143933237Y-93582260D01*
X143919541Y-93443200D01*
X143878979Y-93309484D01*
X143813109Y-93186251D01*
X143724464Y-93078236D01*
X143616449Y-92989591D01*
X143493216Y-92923721D01*
X143359500Y-92883159D01*
X143220440Y-92869463D01*
X142458440Y-92869463D01*
X142319380Y-92883159D01*
X142185664Y-92923721D01*
X142105200Y-92966730D01*
X142105200Y-91362991D01*
X158885393Y-91362991D01*
X159699960Y-92177558D01*
X160514527Y-91362991D01*
X160414396Y-91179637D01*
X160191968Y-91060813D01*
X159950632Y-90987666D01*
X159699663Y-90963006D01*
X159448705Y-90987781D01*
X159207404Y-91061041D01*
X158985524Y-91179637D01*
X158885393Y-91362991D01*
X142105200Y-91362991D01*
X142105200Y-87155020D01*
X151772063Y-87155020D01*
X151772063Y-87917020D01*
X151785759Y-88056080D01*
X151826321Y-88189796D01*
X151892191Y-88313029D01*
X151980836Y-88421044D01*
X152088851Y-88509689D01*
X152212084Y-88575559D01*
X152345800Y-88616121D01*
X152484860Y-88629817D01*
X153891305Y-88629817D01*
X153869800Y-88737931D01*
X153869800Y-88862069D01*
X153894018Y-88983822D01*
X153941524Y-89098512D01*
X154010492Y-89201729D01*
X154098271Y-89289508D01*
X154201488Y-89358476D01*
X154316178Y-89405982D01*
X154437931Y-89430200D01*
X154562069Y-89430200D01*
X154683822Y-89405982D01*
X154798512Y-89358476D01*
X154901729Y-89289508D01*
X154989508Y-89201729D01*
X155058476Y-89098512D01*
X155105982Y-88983822D01*
X155130200Y-88862069D01*
X155130200Y-88737931D01*
X155105982Y-88616178D01*
X155058476Y-88501488D01*
X155012572Y-88432789D01*
X155026884Y-88421044D01*
X155115529Y-88313029D01*
X155181399Y-88189796D01*
X155221961Y-88056080D01*
X155235657Y-87917020D01*
X155235657Y-87155020D01*
X155221961Y-87015960D01*
X155181399Y-86882244D01*
X155115529Y-86759011D01*
X155026884Y-86650996D01*
X154918869Y-86562351D01*
X154795636Y-86496481D01*
X154661920Y-86455919D01*
X154522860Y-86442223D01*
X152484860Y-86442223D01*
X152345800Y-86455919D01*
X152212084Y-86496481D01*
X152088851Y-86562351D01*
X151980836Y-86650996D01*
X151892191Y-86759011D01*
X151826321Y-86882244D01*
X151785759Y-87015960D01*
X151772063Y-87155020D01*
X142105200Y-87155020D01*
X142105200Y-85758020D01*
X151772062Y-85758020D01*
X151778437Y-85822751D01*
X151797319Y-85884994D01*
X151827980Y-85942357D01*
X151869243Y-85992637D01*
X151919523Y-86033900D01*
X151976886Y-86064561D01*
X152039129Y-86083443D01*
X152103860Y-86089818D01*
X153370510Y-86088220D01*
X153453060Y-86005670D01*
X153453060Y-85046820D01*
X151856210Y-85046820D01*
X151773660Y-85129370D01*
X151772062Y-85758020D01*
X142105200Y-85758020D01*
X142105200Y-84234020D01*
X151772062Y-84234020D01*
X151773660Y-84862670D01*
X151856210Y-84945220D01*
X153453060Y-84945220D01*
X153453060Y-83986370D01*
X153554660Y-83986370D01*
X153554660Y-84945220D01*
X153775536Y-84945220D01*
X153771144Y-85022000D01*
X153774622Y-85046820D01*
X153554660Y-85046820D01*
X153554660Y-86005670D01*
X153637210Y-86088220D01*
X154903860Y-86089818D01*
X154968591Y-86083443D01*
X155030834Y-86064561D01*
X155088197Y-86033900D01*
X155138477Y-85992637D01*
X155179740Y-85942357D01*
X155210401Y-85884994D01*
X155229283Y-85822751D01*
X155235658Y-85758020D01*
X155234060Y-85129370D01*
X155151510Y-85046820D01*
X155032184Y-85046820D01*
X155036576Y-84970040D01*
X155033098Y-84945220D01*
X155151510Y-84945220D01*
X155234060Y-84862670D01*
X155235658Y-84234020D01*
X155229283Y-84169289D01*
X155210401Y-84107046D01*
X155179740Y-84049683D01*
X155138477Y-83999403D01*
X155088197Y-83958140D01*
X155030834Y-83927479D01*
X154968591Y-83908597D01*
X154903860Y-83902222D01*
X153637210Y-83903820D01*
X153554660Y-83986370D01*
X153453060Y-83986370D01*
X153370510Y-83903820D01*
X152103860Y-83902222D01*
X152039129Y-83908597D01*
X151976886Y-83927479D01*
X151919523Y-83958140D01*
X151869243Y-83999403D01*
X151827980Y-84049683D01*
X151797319Y-84107046D01*
X151778437Y-84169289D01*
X151772062Y-84234020D01*
X142105200Y-84234020D01*
X142105200Y-82075020D01*
X151772063Y-82075020D01*
X151772063Y-82837020D01*
X151785759Y-82976080D01*
X151826321Y-83109796D01*
X151892191Y-83233029D01*
X151980836Y-83341044D01*
X152088851Y-83429689D01*
X152212084Y-83495559D01*
X152345800Y-83536121D01*
X152484860Y-83549817D01*
X154522860Y-83549817D01*
X154661920Y-83536121D01*
X154795636Y-83495559D01*
X154918869Y-83429689D01*
X155026884Y-83341044D01*
X155115529Y-83233029D01*
X155181399Y-83109796D01*
X155221961Y-82976080D01*
X155235657Y-82837020D01*
X155235657Y-82075020D01*
X155221961Y-81935960D01*
X155181399Y-81802244D01*
X155115529Y-81679011D01*
X155026884Y-81570996D01*
X154918869Y-81482351D01*
X154795636Y-81416481D01*
X154661920Y-81375919D01*
X154522860Y-81362223D01*
X152484860Y-81362223D01*
X152345800Y-81375919D01*
X152212084Y-81416481D01*
X152088851Y-81482351D01*
X151980836Y-81570996D01*
X151892191Y-81679011D01*
X151826321Y-81802244D01*
X151785759Y-81935960D01*
X151772063Y-82075020D01*
X142105200Y-82075020D01*
X142105200Y-78635809D01*
X158885393Y-78635809D01*
X158985524Y-78819163D01*
X159207952Y-78937987D01*
X159449288Y-79011134D01*
X159700257Y-79035794D01*
X159951215Y-79011019D01*
X160192516Y-78937759D01*
X160414396Y-78819163D01*
X160514527Y-78635809D01*
X159699960Y-77821242D01*
X158885393Y-78635809D01*
X142105200Y-78635809D01*
X142105200Y-77034112D01*
X142188204Y-77078479D01*
X142321920Y-77119041D01*
X142460980Y-77132737D01*
X143222980Y-77132737D01*
X143362040Y-77119041D01*
X143495756Y-77078479D01*
X143618989Y-77012609D01*
X143727004Y-76923964D01*
X143815649Y-76815949D01*
X143881519Y-76692716D01*
X143922081Y-76559000D01*
X143935777Y-76419940D01*
X143935777Y-74381940D01*
X143922081Y-74242880D01*
X143881519Y-74109164D01*
X143879400Y-74105200D01*
X144344560Y-74105200D01*
X144342441Y-74109164D01*
G37*
%TD.AperFunction*%
D16*
X154489845Y-84981878D02*
X154475702Y-84996020D01*
X154489845Y-85010163D01*
X154453187Y-85046820D01*
X154354533Y-85046820D01*
X154317876Y-85010163D01*
X154332018Y-84996020D01*
X154317876Y-84981878D01*
X154354533Y-84945220D01*
X154453187Y-84945220D01*
X154489845Y-84981878D01*
%TA.AperFunction,Conductor*%
D15*
G36*
X154489845Y-84981878D02*
G01*
X154475702Y-84996020D01*
X154489845Y-85010163D01*
X154453187Y-85046820D01*
X154354533Y-85046820D01*
X154317876Y-85010163D01*
X154332018Y-84996020D01*
X154317876Y-84981878D01*
X154354533Y-84945220D01*
X154453187Y-84945220D01*
X154489845Y-84981878D01*
G37*
%TD.AperFunction*%
%TD*%
M02*
