%TF.GenerationSoftware,KiCad,Pcbnew,(5.1.9)-1*%
%TF.CreationDate,2021-02-17T22:30:47-05:00*%
%TF.ProjectId,dvi-sock,6476692d-736f-4636-9b2e-6b696361645f,rev?*%
%TF.SameCoordinates,Original*%
%TF.FileFunction,Soldermask,Top*%
%TF.FilePolarity,Negative*%
%FSLAX46Y46*%
G04 Gerber Fmt 4.6, Leading zero omitted, Abs format (unit mm)*
G04 Created by KiCad (PCBNEW (5.1.9)-1) date 2021-02-17 22:30:47*
%MOMM*%
%LPD*%
G01*
G04 APERTURE LIST*
%ADD10C,3.800000*%
%ADD11C,0.100000*%
%ADD12C,1.800000*%
%ADD13C,0.700000*%
%ADD14C,2.000000*%
%ADD15C,2.100000*%
%ADD16C,1.900000*%
%ADD17R,1.900000X0.300000*%
%ADD18R,1.700000X1.700000*%
%ADD19O,1.700000X1.700000*%
%ADD20C,0.600000*%
G04 APERTURE END LIST*
D10*
X156500000Y-94000000D02*
X156500000Y-94000000D01*
D11*
X156039380Y-79439380D02*
X156039380Y-79439380D01*
X156760620Y-80160620D02*
X156760620Y-80160620D01*
X159900000Y-94800000D02*
X159900000Y-94800000D01*
D12*
X162440000Y-94800000D02*
X162440000Y-94800000D01*
D10*
X156500000Y-76000000D02*
X156500000Y-76000000D01*
D13*
X142840000Y-95500000D02*
X142840000Y-95500000D01*
D11*
X142840000Y-94600000D02*
X142840000Y-94600000D01*
X145380000Y-94600000D02*
X145380000Y-94600000D01*
D13*
X145380000Y-95500000D02*
X145380000Y-95500000D01*
X147920000Y-95500000D02*
X147920000Y-95500000D01*
D11*
X147920000Y-94600000D02*
X147920000Y-94600000D01*
X150460000Y-94600000D02*
X150460000Y-94600000D01*
D13*
X150460000Y-95500000D02*
X150460000Y-95500000D01*
X153000000Y-95500000D02*
X153000000Y-95500000D01*
D11*
X153000000Y-94600000D02*
X153000000Y-94600000D01*
X157250000Y-87810000D02*
X157250000Y-87810000D01*
X157250000Y-86790000D02*
X157250000Y-86790000D01*
X156139380Y-84860620D02*
X156139380Y-84860620D01*
X156860620Y-84139380D02*
X156860620Y-84139380D01*
X156739380Y-78739380D02*
X156739380Y-78739380D01*
X157460620Y-79460620D02*
X157460620Y-79460620D01*
X156300000Y-87810000D02*
X156300000Y-87810000D01*
X156300000Y-86790000D02*
X156300000Y-86790000D01*
X156039380Y-80789380D02*
X156039380Y-80789380D01*
X156760620Y-81510620D02*
X156760620Y-81510620D01*
D13*
X153000000Y-74500000D02*
X153000000Y-74500000D01*
D11*
X153000000Y-75400000D02*
X153000000Y-75400000D01*
X150460000Y-75400000D02*
X150460000Y-75400000D01*
D13*
X150460000Y-74500000D02*
X150460000Y-74500000D01*
X147920000Y-74500000D02*
X147920000Y-74500000D01*
D11*
X147920000Y-75400000D02*
X147920000Y-75400000D01*
D13*
X145380000Y-74500000D02*
X145380000Y-74500000D01*
D11*
X145380000Y-75400000D02*
X145380000Y-75400000D01*
X142840000Y-75400000D02*
X142840000Y-75400000D01*
D13*
X142840000Y-74500000D02*
X142840000Y-74500000D01*
X154400000Y-87540000D02*
X154400000Y-87540000D01*
D11*
X153500000Y-87540000D02*
X153500000Y-87540000D01*
D13*
X154400000Y-85000000D02*
X154400000Y-85000000D01*
D11*
X153500000Y-85000000D02*
X153500000Y-85000000D01*
D13*
X154400000Y-82460000D02*
X154400000Y-82460000D01*
D11*
X153500000Y-82460000D02*
X153500000Y-82460000D01*
X155439380Y-84160620D02*
X155439380Y-84160620D01*
X156160620Y-83439380D02*
X156160620Y-83439380D01*
X158800000Y-80250000D02*
X158800000Y-80250000D01*
X158800000Y-80750000D02*
X158800000Y-80750000D01*
X158800000Y-81250000D02*
X158800000Y-81250000D01*
X158800000Y-81750000D02*
X158800000Y-81750000D01*
X158800000Y-82250000D02*
X158800000Y-82250000D01*
X158800000Y-82750000D02*
X158800000Y-82750000D01*
X158800000Y-83250000D02*
X158800000Y-83250000D01*
X158800000Y-83750000D02*
X158800000Y-83750000D01*
X158800000Y-84250000D02*
X158800000Y-84250000D01*
X158800000Y-84750000D02*
X158800000Y-84750000D01*
X158800000Y-85250000D02*
X158800000Y-85250000D01*
X158800000Y-85750000D02*
X158800000Y-85750000D01*
X158800000Y-86250000D02*
X158800000Y-86250000D01*
X158800000Y-86750000D02*
X158800000Y-86750000D01*
X158800000Y-87250000D02*
X158800000Y-87250000D01*
X158800000Y-87750000D02*
X158800000Y-87750000D01*
X158800000Y-88250000D02*
X158800000Y-88250000D01*
X158800000Y-88750000D02*
X158800000Y-88750000D01*
X158800000Y-89250000D02*
X158800000Y-89250000D01*
D14*
X164600000Y-77150000D02*
X164600000Y-77150000D01*
X159700000Y-77750000D02*
X159700000Y-77750000D01*
X159700000Y-92250000D02*
X159700000Y-92250000D01*
X164600000Y-92850000D02*
X164600000Y-92850000D01*
D11*
X155339380Y-81489380D02*
X155339380Y-81489380D01*
X156060620Y-82210620D02*
X156060620Y-82210620D01*
D15*
%TO.C,REF\u002A\u002A*%
X156500000Y-94000000D03*
%TD*%
%TO.C,REF\u002A\u002A*%
X156500000Y-76000000D03*
%TD*%
D16*
%TO.C,J4*%
X164599960Y-77149400D03*
X164599960Y-92849400D03*
X159699960Y-77749400D03*
X159699960Y-92249400D03*
D17*
X158799960Y-89249400D03*
X158799960Y-88749400D03*
X158799960Y-88249400D03*
X158799960Y-87749400D03*
X158799960Y-87249400D03*
X158799960Y-86749400D03*
X158799960Y-86249400D03*
X158799960Y-85749400D03*
X158799960Y-85249400D03*
X158799960Y-84749400D03*
X158799960Y-84249400D03*
X158799960Y-83749400D03*
X158799960Y-83249400D03*
X158799960Y-82749400D03*
X158799960Y-82249400D03*
X158799960Y-81749400D03*
X158799960Y-81249400D03*
X158799960Y-80749400D03*
X158799960Y-80249400D03*
%TD*%
D18*
%TO.C,J5*%
X159900620Y-94800420D03*
D19*
X162440620Y-94800420D03*
%TD*%
%TO.C,J1*%
G36*
G01*
X142077440Y-95620260D02*
X142077440Y-93582260D01*
G75*
G02*
X142458440Y-93201260I381000J0D01*
G01*
X143220440Y-93201260D01*
G75*
G02*
X143601440Y-93582260I0J-381000D01*
G01*
X143601440Y-95620260D01*
G75*
G02*
X143220440Y-96001260I-381000J0D01*
G01*
X142458440Y-96001260D01*
G75*
G02*
X142077440Y-95620260I0J381000D01*
G01*
G37*
D20*
X142839440Y-95501260D03*
G36*
G01*
X144617440Y-95620260D02*
X144617440Y-93582260D01*
G75*
G02*
X144998440Y-93201260I381000J0D01*
G01*
X145760440Y-93201260D01*
G75*
G02*
X146141440Y-93582260I0J-381000D01*
G01*
X146141440Y-95620260D01*
G75*
G02*
X145760440Y-96001260I-381000J0D01*
G01*
X144998440Y-96001260D01*
G75*
G02*
X144617440Y-95620260I0J381000D01*
G01*
G37*
X145379440Y-95501260D03*
X147919440Y-95501260D03*
G36*
G01*
X147157440Y-95620260D02*
X147157440Y-93582260D01*
G75*
G02*
X147538440Y-93201260I381000J0D01*
G01*
X148300440Y-93201260D01*
G75*
G02*
X148681440Y-93582260I0J-381000D01*
G01*
X148681440Y-95620260D01*
G75*
G02*
X148300440Y-96001260I-381000J0D01*
G01*
X147538440Y-96001260D01*
G75*
G02*
X147157440Y-95620260I0J381000D01*
G01*
G37*
G36*
G01*
X149697440Y-95620260D02*
X149697440Y-93582260D01*
G75*
G02*
X150078440Y-93201260I381000J0D01*
G01*
X150840440Y-93201260D01*
G75*
G02*
X151221440Y-93582260I0J-381000D01*
G01*
X151221440Y-95620260D01*
G75*
G02*
X150840440Y-96001260I-381000J0D01*
G01*
X150078440Y-96001260D01*
G75*
G02*
X149697440Y-95620260I0J381000D01*
G01*
G37*
X150459440Y-95501260D03*
G36*
G01*
X152237440Y-95620260D02*
X152237440Y-93582260D01*
G75*
G02*
X152618440Y-93201260I381000J0D01*
G01*
X153380440Y-93201260D01*
G75*
G02*
X153761440Y-93582260I0J-381000D01*
G01*
X153761440Y-95620260D01*
G75*
G02*
X153380440Y-96001260I-381000J0D01*
G01*
X152618440Y-96001260D01*
G75*
G02*
X152237440Y-95620260I0J381000D01*
G01*
G37*
X152999440Y-95501260D03*
%TD*%
%TO.C,J3*%
X154403860Y-87536020D03*
G36*
G01*
X154522860Y-88298020D02*
X152484860Y-88298020D01*
G75*
G02*
X152103860Y-87917020I0J381000D01*
G01*
X152103860Y-87155020D01*
G75*
G02*
X152484860Y-86774020I381000J0D01*
G01*
X154522860Y-86774020D01*
G75*
G02*
X154903860Y-87155020I0J-381000D01*
G01*
X154903860Y-87917020D01*
G75*
G02*
X154522860Y-88298020I-381000J0D01*
G01*
G37*
G36*
G01*
X154522860Y-85758020D02*
X152484860Y-85758020D01*
G75*
G02*
X152103860Y-85377020I0J381000D01*
G01*
X152103860Y-84615020D01*
G75*
G02*
X152484860Y-84234020I381000J0D01*
G01*
X154522860Y-84234020D01*
G75*
G02*
X154903860Y-84615020I0J-381000D01*
G01*
X154903860Y-85377020D01*
G75*
G02*
X154522860Y-85758020I-381000J0D01*
G01*
G37*
X154403860Y-84996020D03*
G36*
G01*
X154522860Y-83218020D02*
X152484860Y-83218020D01*
G75*
G02*
X152103860Y-82837020I0J381000D01*
G01*
X152103860Y-82075020D01*
G75*
G02*
X152484860Y-81694020I381000J0D01*
G01*
X154522860Y-81694020D01*
G75*
G02*
X154903860Y-82075020I0J-381000D01*
G01*
X154903860Y-82837020D01*
G75*
G02*
X154522860Y-83218020I-381000J0D01*
G01*
G37*
X154403860Y-82456020D03*
%TD*%
%TO.C,J2*%
G36*
G01*
X153763980Y-74381940D02*
X153763980Y-76419940D01*
G75*
G02*
X153382980Y-76800940I-381000J0D01*
G01*
X152620980Y-76800940D01*
G75*
G02*
X152239980Y-76419940I0J381000D01*
G01*
X152239980Y-74381940D01*
G75*
G02*
X152620980Y-74000940I381000J0D01*
G01*
X153382980Y-74000940D01*
G75*
G02*
X153763980Y-74381940I0J-381000D01*
G01*
G37*
X153001980Y-74500940D03*
G36*
G01*
X151223980Y-74381940D02*
X151223980Y-76419940D01*
G75*
G02*
X150842980Y-76800940I-381000J0D01*
G01*
X150080980Y-76800940D01*
G75*
G02*
X149699980Y-76419940I0J381000D01*
G01*
X149699980Y-74381940D01*
G75*
G02*
X150080980Y-74000940I381000J0D01*
G01*
X150842980Y-74000940D01*
G75*
G02*
X151223980Y-74381940I0J-381000D01*
G01*
G37*
X150461980Y-74500940D03*
X147921980Y-74500940D03*
G36*
G01*
X148683980Y-74381940D02*
X148683980Y-76419940D01*
G75*
G02*
X148302980Y-76800940I-381000J0D01*
G01*
X147540980Y-76800940D01*
G75*
G02*
X147159980Y-76419940I0J381000D01*
G01*
X147159980Y-74381940D01*
G75*
G02*
X147540980Y-74000940I381000J0D01*
G01*
X148302980Y-74000940D01*
G75*
G02*
X148683980Y-74381940I0J-381000D01*
G01*
G37*
G36*
G01*
X146143980Y-74381940D02*
X146143980Y-76419940D01*
G75*
G02*
X145762980Y-76800940I-381000J0D01*
G01*
X145000980Y-76800940D01*
G75*
G02*
X144619980Y-76419940I0J381000D01*
G01*
X144619980Y-74381940D01*
G75*
G02*
X145000980Y-74000940I381000J0D01*
G01*
X145762980Y-74000940D01*
G75*
G02*
X146143980Y-74381940I0J-381000D01*
G01*
G37*
X145381980Y-74500940D03*
G36*
G01*
X143603980Y-74381940D02*
X143603980Y-76419940D01*
G75*
G02*
X143222980Y-76800940I-381000J0D01*
G01*
X142460980Y-76800940D01*
G75*
G02*
X142079980Y-76419940I0J381000D01*
G01*
X142079980Y-74381940D01*
G75*
G02*
X142460980Y-74000940I381000J0D01*
G01*
X143222980Y-74000940D01*
G75*
G02*
X143603980Y-74381940I0J-381000D01*
G01*
G37*
X142841980Y-74500940D03*
%TD*%
%TO.C,R8*%
G36*
G01*
X157433860Y-87059800D02*
X157063860Y-87059800D01*
G75*
G02*
X156928860Y-86924800I0J135000D01*
G01*
X156928860Y-86654800D01*
G75*
G02*
X157063860Y-86519800I135000J0D01*
G01*
X157433860Y-86519800D01*
G75*
G02*
X157568860Y-86654800I0J-135000D01*
G01*
X157568860Y-86924800D01*
G75*
G02*
X157433860Y-87059800I-135000J0D01*
G01*
G37*
G36*
G01*
X157433860Y-88079800D02*
X157063860Y-88079800D01*
G75*
G02*
X156928860Y-87944800I0J135000D01*
G01*
X156928860Y-87674800D01*
G75*
G02*
X157063860Y-87539800I135000J0D01*
G01*
X157433860Y-87539800D01*
G75*
G02*
X157568860Y-87674800I0J-135000D01*
G01*
X157568860Y-87944800D01*
G75*
G02*
X157433860Y-88079800I-135000J0D01*
G01*
G37*
%TD*%
%TO.C,R7*%
G36*
G01*
X156483900Y-87059800D02*
X156113900Y-87059800D01*
G75*
G02*
X155978900Y-86924800I0J135000D01*
G01*
X155978900Y-86654800D01*
G75*
G02*
X156113900Y-86519800I135000J0D01*
G01*
X156483900Y-86519800D01*
G75*
G02*
X156618900Y-86654800I0J-135000D01*
G01*
X156618900Y-86924800D01*
G75*
G02*
X156483900Y-87059800I-135000J0D01*
G01*
G37*
G36*
G01*
X156483900Y-88079800D02*
X156113900Y-88079800D01*
G75*
G02*
X155978900Y-87944800I0J135000D01*
G01*
X155978900Y-87674800D01*
G75*
G02*
X156113900Y-87539800I135000J0D01*
G01*
X156483900Y-87539800D01*
G75*
G02*
X156618900Y-87674800I0J-135000D01*
G01*
X156618900Y-87944800D01*
G75*
G02*
X156483900Y-88079800I-135000J0D01*
G01*
G37*
%TD*%
%TO.C,R1*%
G36*
G01*
X157137891Y-79401200D02*
X157399520Y-79139571D01*
G75*
G02*
X157590438Y-79139571I95459J-95459D01*
G01*
X157781357Y-79330490D01*
G75*
G02*
X157781357Y-79521408I-95459J-95459D01*
G01*
X157519728Y-79783037D01*
G75*
G02*
X157328810Y-79783037I-95459J95459D01*
G01*
X157137891Y-79592118D01*
G75*
G02*
X157137891Y-79401200I95459J95459D01*
G01*
G37*
G36*
G01*
X156416643Y-78679952D02*
X156678272Y-78418323D01*
G75*
G02*
X156869190Y-78418323I95459J-95459D01*
G01*
X157060109Y-78609242D01*
G75*
G02*
X157060109Y-78800160I-95459J-95459D01*
G01*
X156798480Y-79061789D01*
G75*
G02*
X156607562Y-79061789I-95459J95459D01*
G01*
X156416643Y-78870870D01*
G75*
G02*
X156416643Y-78679952I95459J95459D01*
G01*
G37*
%TD*%
%TO.C,R2*%
G36*
G01*
X156436851Y-80099700D02*
X156698480Y-79838071D01*
G75*
G02*
X156889398Y-79838071I95459J-95459D01*
G01*
X157080317Y-80028990D01*
G75*
G02*
X157080317Y-80219908I-95459J-95459D01*
G01*
X156818688Y-80481537D01*
G75*
G02*
X156627770Y-80481537I-95459J95459D01*
G01*
X156436851Y-80290618D01*
G75*
G02*
X156436851Y-80099700I95459J95459D01*
G01*
G37*
G36*
G01*
X155715603Y-79378452D02*
X155977232Y-79116823D01*
G75*
G02*
X156168150Y-79116823I95459J-95459D01*
G01*
X156359069Y-79307742D01*
G75*
G02*
X156359069Y-79498660I-95459J-95459D01*
G01*
X156097440Y-79760289D01*
G75*
G02*
X155906522Y-79760289I-95459J95459D01*
G01*
X155715603Y-79569370D01*
G75*
G02*
X155715603Y-79378452I95459J95459D01*
G01*
G37*
%TD*%
%TO.C,R4*%
G36*
G01*
X155738351Y-82149480D02*
X155999980Y-81887851D01*
G75*
G02*
X156190898Y-81887851I95459J-95459D01*
G01*
X156381817Y-82078770D01*
G75*
G02*
X156381817Y-82269688I-95459J-95459D01*
G01*
X156120188Y-82531317D01*
G75*
G02*
X155929270Y-82531317I-95459J95459D01*
G01*
X155738351Y-82340398D01*
G75*
G02*
X155738351Y-82149480I95459J95459D01*
G01*
G37*
G36*
G01*
X155017103Y-81428232D02*
X155278732Y-81166603D01*
G75*
G02*
X155469650Y-81166603I95459J-95459D01*
G01*
X155660569Y-81357522D01*
G75*
G02*
X155660569Y-81548440I-95459J-95459D01*
G01*
X155398940Y-81810069D01*
G75*
G02*
X155208022Y-81810069I-95459J95459D01*
G01*
X155017103Y-81619150D01*
G75*
G02*
X155017103Y-81428232I95459J95459D01*
G01*
G37*
%TD*%
%TO.C,R3*%
G36*
G01*
X156439391Y-81450980D02*
X156701020Y-81189351D01*
G75*
G02*
X156891938Y-81189351I95459J-95459D01*
G01*
X157082857Y-81380270D01*
G75*
G02*
X157082857Y-81571188I-95459J-95459D01*
G01*
X156821228Y-81832817D01*
G75*
G02*
X156630310Y-81832817I-95459J95459D01*
G01*
X156439391Y-81641898D01*
G75*
G02*
X156439391Y-81450980I95459J95459D01*
G01*
G37*
G36*
G01*
X155718143Y-80729732D02*
X155979772Y-80468103D01*
G75*
G02*
X156170690Y-80468103I95459J-95459D01*
G01*
X156361609Y-80659022D01*
G75*
G02*
X156361609Y-80849940I-95459J-95459D01*
G01*
X156099980Y-81111569D01*
G75*
G02*
X155909062Y-81111569I-95459J95459D01*
G01*
X155718143Y-80920650D01*
G75*
G02*
X155718143Y-80729732I95459J95459D01*
G01*
G37*
%TD*%
%TO.C,R6*%
G36*
G01*
X156800080Y-84461829D02*
X156538451Y-84200200D01*
G75*
G02*
X156538451Y-84009282I95459J95459D01*
G01*
X156729370Y-83818363D01*
G75*
G02*
X156920288Y-83818363I95459J-95459D01*
G01*
X157181917Y-84079992D01*
G75*
G02*
X157181917Y-84270910I-95459J-95459D01*
G01*
X156990998Y-84461829D01*
G75*
G02*
X156800080Y-84461829I-95459J95459D01*
G01*
G37*
G36*
G01*
X156078832Y-85183077D02*
X155817203Y-84921448D01*
G75*
G02*
X155817203Y-84730530I95459J95459D01*
G01*
X156008122Y-84539611D01*
G75*
G02*
X156199040Y-84539611I95459J-95459D01*
G01*
X156460669Y-84801240D01*
G75*
G02*
X156460669Y-84992158I-95459J-95459D01*
G01*
X156269750Y-85183077D01*
G75*
G02*
X156078832Y-85183077I-95459J95459D01*
G01*
G37*
%TD*%
%TO.C,R5*%
G36*
G01*
X155377792Y-84484577D02*
X155116163Y-84222948D01*
G75*
G02*
X155116163Y-84032030I95459J95459D01*
G01*
X155307082Y-83841111D01*
G75*
G02*
X155498000Y-83841111I95459J-95459D01*
G01*
X155759629Y-84102740D01*
G75*
G02*
X155759629Y-84293658I-95459J-95459D01*
G01*
X155568710Y-84484577D01*
G75*
G02*
X155377792Y-84484577I-95459J95459D01*
G01*
G37*
G36*
G01*
X156099040Y-83763329D02*
X155837411Y-83501700D01*
G75*
G02*
X155837411Y-83310782I95459J95459D01*
G01*
X156028330Y-83119863D01*
G75*
G02*
X156219248Y-83119863I95459J-95459D01*
G01*
X156480877Y-83381492D01*
G75*
G02*
X156480877Y-83572410I-95459J-95459D01*
G01*
X156289958Y-83763329D01*
G75*
G02*
X156099040Y-83763329I-95459J95459D01*
G01*
G37*
%TD*%
M02*
