%TF.GenerationSoftware,KiCad,Pcbnew,(5.1.9)-1*%
%TF.CreationDate,2021-02-17T22:30:47-05:00*%
%TF.ProjectId,dvi-sock,6476692d-736f-4636-9b2e-6b696361645f,rev?*%
%TF.SameCoordinates,Original*%
%TF.FileFunction,Legend,Bot*%
%TF.FilePolarity,Positive*%
%FSLAX46Y46*%
G04 Gerber Fmt 4.6, Leading zero omitted, Abs format (unit mm)*
G04 Created by KiCad (PCBNEW (5.1.9)-1) date 2021-02-17 22:30:47*
%MOMM*%
%LPD*%
G01*
G04 APERTURE LIST*
%ADD10C,0.250000*%
%ADD11C,0.130000*%
%ADD12C,0.120000*%
G04 APERTURE END LIST*
D10*
X164397380Y-81595240D02*
X163397380Y-81595240D01*
X163397380Y-81595240D02*
X164397380Y-82166670D01*
X164397380Y-82166670D02*
X163397380Y-82166670D01*
X163397380Y-82833330D02*
X163397380Y-83023810D01*
X163397380Y-83023810D02*
X163445000Y-83119050D01*
X163445000Y-83119050D02*
X163540240Y-83214290D01*
X163540240Y-83214290D02*
X163730710Y-83261900D01*
X163730710Y-83261900D02*
X164064050Y-83261900D01*
X164064050Y-83261900D02*
X164254520Y-83214290D01*
X164254520Y-83214290D02*
X164349760Y-83119050D01*
X164349760Y-83119050D02*
X164397380Y-83023810D01*
X164397380Y-83023810D02*
X164397380Y-82833330D01*
X164397380Y-82833330D02*
X164349760Y-82738100D01*
X164349760Y-82738100D02*
X164254520Y-82642860D01*
X164254520Y-82642860D02*
X164064050Y-82595240D01*
X164064050Y-82595240D02*
X163730710Y-82595240D01*
X163730710Y-82595240D02*
X163540240Y-82642860D01*
X163540240Y-82642860D02*
X163445000Y-82738100D01*
X163445000Y-82738100D02*
X163397380Y-82833330D01*
X163397380Y-83547620D02*
X163397380Y-84119050D01*
X164397380Y-83833330D02*
X163397380Y-83833330D01*
X164397380Y-85214290D02*
X163397380Y-85214290D01*
X163873570Y-85214290D02*
X163873570Y-85785710D01*
X164397380Y-85785710D02*
X163397380Y-85785710D01*
X164397380Y-86261900D02*
X163397380Y-86261900D01*
X163397380Y-86261900D02*
X163397380Y-86500000D01*
X163397380Y-86500000D02*
X163445000Y-86642860D01*
X163445000Y-86642860D02*
X163540240Y-86738100D01*
X163540240Y-86738100D02*
X163635480Y-86785710D01*
X163635480Y-86785710D02*
X163825950Y-86833330D01*
X163825950Y-86833330D02*
X163968810Y-86833330D01*
X163968810Y-86833330D02*
X164159290Y-86785710D01*
X164159290Y-86785710D02*
X164254520Y-86738100D01*
X164254520Y-86738100D02*
X164349760Y-86642860D01*
X164349760Y-86642860D02*
X164397380Y-86500000D01*
X164397380Y-86500000D02*
X164397380Y-86261900D01*
X164397380Y-87261900D02*
X163397380Y-87261900D01*
X163397380Y-87261900D02*
X164111670Y-87595240D01*
X164111670Y-87595240D02*
X163397380Y-87928570D01*
X163397380Y-87928570D02*
X164397380Y-87928570D01*
X164397380Y-88404760D02*
X163397380Y-88404760D01*
X165340710Y-78500000D02*
X166197860Y-78500000D01*
X166197860Y-78500000D02*
X166293100Y-78452380D01*
X166293100Y-78452380D02*
X166340710Y-78357140D01*
X166340710Y-78357140D02*
X166340710Y-78309520D01*
X165007380Y-78500000D02*
X165055000Y-78452380D01*
X165055000Y-78452380D02*
X165102620Y-78500000D01*
X165102620Y-78500000D02*
X165055000Y-78547620D01*
X165055000Y-78547620D02*
X165007380Y-78500000D01*
X165007380Y-78500000D02*
X165102620Y-78500000D01*
X165340710Y-79404760D02*
X166007380Y-79404760D01*
X165340710Y-78976190D02*
X165864520Y-78976190D01*
X165864520Y-78976190D02*
X165959760Y-79023810D01*
X165959760Y-79023810D02*
X166007380Y-79119050D01*
X166007380Y-79119050D02*
X166007380Y-79261900D01*
X166007380Y-79261900D02*
X165959760Y-79357140D01*
X165959760Y-79357140D02*
X165912140Y-79404760D01*
X165959760Y-79833330D02*
X166007380Y-79928570D01*
X166007380Y-79928570D02*
X166007380Y-80119050D01*
X166007380Y-80119050D02*
X165959760Y-80214290D01*
X165959760Y-80214290D02*
X165864520Y-80261900D01*
X165864520Y-80261900D02*
X165816900Y-80261900D01*
X165816900Y-80261900D02*
X165721670Y-80214290D01*
X165721670Y-80214290D02*
X165674050Y-80119050D01*
X165674050Y-80119050D02*
X165674050Y-79976190D01*
X165674050Y-79976190D02*
X165626430Y-79880950D01*
X165626430Y-79880950D02*
X165531190Y-79833330D01*
X165531190Y-79833330D02*
X165483570Y-79833330D01*
X165483570Y-79833330D02*
X165388330Y-79880950D01*
X165388330Y-79880950D02*
X165340710Y-79976190D01*
X165340710Y-79976190D02*
X165340710Y-80119050D01*
X165340710Y-80119050D02*
X165388330Y-80214290D01*
X165340710Y-80547620D02*
X165340710Y-80928570D01*
X165007380Y-80690480D02*
X165864520Y-80690480D01*
X165864520Y-80690480D02*
X165959760Y-80738100D01*
X165959760Y-80738100D02*
X166007380Y-80833330D01*
X166007380Y-80833330D02*
X166007380Y-80928570D01*
X165959760Y-81976190D02*
X166007380Y-82071430D01*
X166007380Y-82071430D02*
X166007380Y-82261900D01*
X166007380Y-82261900D02*
X165959760Y-82357140D01*
X165959760Y-82357140D02*
X165864520Y-82404760D01*
X165864520Y-82404760D02*
X165816900Y-82404760D01*
X165816900Y-82404760D02*
X165721670Y-82357140D01*
X165721670Y-82357140D02*
X165674050Y-82261900D01*
X165674050Y-82261900D02*
X165674050Y-82119050D01*
X165674050Y-82119050D02*
X165626430Y-82023810D01*
X165626430Y-82023810D02*
X165531190Y-81976190D01*
X165531190Y-81976190D02*
X165483570Y-81976190D01*
X165483570Y-81976190D02*
X165388330Y-82023810D01*
X165388330Y-82023810D02*
X165340710Y-82119050D01*
X165340710Y-82119050D02*
X165340710Y-82261900D01*
X165340710Y-82261900D02*
X165388330Y-82357140D01*
X165340710Y-82833330D02*
X166340710Y-82833330D01*
X165388330Y-82833330D02*
X165340710Y-82928570D01*
X165340710Y-82928570D02*
X165340710Y-83119050D01*
X165340710Y-83119050D02*
X165388330Y-83214290D01*
X165388330Y-83214290D02*
X165435950Y-83261900D01*
X165435950Y-83261900D02*
X165531190Y-83309520D01*
X165531190Y-83309520D02*
X165816900Y-83309520D01*
X165816900Y-83309520D02*
X165912140Y-83261900D01*
X165912140Y-83261900D02*
X165959760Y-83214290D01*
X165959760Y-83214290D02*
X166007380Y-83119050D01*
X166007380Y-83119050D02*
X166007380Y-82928570D01*
X166007380Y-82928570D02*
X165959760Y-82833330D01*
X166007380Y-84166670D02*
X165483570Y-84166670D01*
X165483570Y-84166670D02*
X165388330Y-84119050D01*
X165388330Y-84119050D02*
X165340710Y-84023810D01*
X165340710Y-84023810D02*
X165340710Y-83833330D01*
X165340710Y-83833330D02*
X165388330Y-83738100D01*
X165959760Y-84166670D02*
X166007380Y-84071430D01*
X166007380Y-84071430D02*
X166007380Y-83833330D01*
X166007380Y-83833330D02*
X165959760Y-83738100D01*
X165959760Y-83738100D02*
X165864520Y-83690480D01*
X165864520Y-83690480D02*
X165769290Y-83690480D01*
X165769290Y-83690480D02*
X165674050Y-83738100D01*
X165674050Y-83738100D02*
X165626430Y-83833330D01*
X165626430Y-83833330D02*
X165626430Y-84071430D01*
X165626430Y-84071430D02*
X165578810Y-84166670D01*
X166007380Y-84642860D02*
X165340710Y-84642860D01*
X165531190Y-84642860D02*
X165435950Y-84690480D01*
X165435950Y-84690480D02*
X165388330Y-84738100D01*
X165388330Y-84738100D02*
X165340710Y-84833330D01*
X165340710Y-84833330D02*
X165340710Y-84928570D01*
X166007380Y-85261900D02*
X165007380Y-85261900D01*
X165626430Y-85357140D02*
X166007380Y-85642860D01*
X165340710Y-85642860D02*
X165721670Y-85261900D01*
X166007380Y-86214290D02*
X165959760Y-86119050D01*
X165959760Y-86119050D02*
X165864520Y-86071430D01*
X165864520Y-86071430D02*
X165007380Y-86071430D01*
X166007380Y-86595240D02*
X165340710Y-86595240D01*
X165007380Y-86595240D02*
X165055000Y-86547620D01*
X165055000Y-86547620D02*
X165102620Y-86595240D01*
X165102620Y-86595240D02*
X165055000Y-86642860D01*
X165055000Y-86642860D02*
X165007380Y-86595240D01*
X165007380Y-86595240D02*
X165102620Y-86595240D01*
X165340710Y-87071430D02*
X166007380Y-87071430D01*
X165435950Y-87071430D02*
X165388330Y-87119050D01*
X165388330Y-87119050D02*
X165340710Y-87214290D01*
X165340710Y-87214290D02*
X165340710Y-87357140D01*
X165340710Y-87357140D02*
X165388330Y-87452380D01*
X165388330Y-87452380D02*
X165483570Y-87500000D01*
X165483570Y-87500000D02*
X166007380Y-87500000D01*
X165340710Y-88404760D02*
X166150240Y-88404760D01*
X166150240Y-88404760D02*
X166245480Y-88357140D01*
X166245480Y-88357140D02*
X166293100Y-88309520D01*
X166293100Y-88309520D02*
X166340710Y-88214290D01*
X166340710Y-88214290D02*
X166340710Y-88071430D01*
X166340710Y-88071430D02*
X166293100Y-87976190D01*
X165959760Y-88404760D02*
X166007380Y-88309520D01*
X166007380Y-88309520D02*
X166007380Y-88119050D01*
X166007380Y-88119050D02*
X165959760Y-88023810D01*
X165959760Y-88023810D02*
X165912140Y-87976190D01*
X165912140Y-87976190D02*
X165816900Y-87928570D01*
X165816900Y-87928570D02*
X165531190Y-87928570D01*
X165531190Y-87928570D02*
X165435950Y-87976190D01*
X165435950Y-87976190D02*
X165388330Y-88023810D01*
X165388330Y-88023810D02*
X165340710Y-88119050D01*
X165340710Y-88119050D02*
X165340710Y-88309520D01*
X165340710Y-88309520D02*
X165388330Y-88404760D01*
X166007380Y-89642860D02*
X165007380Y-89642860D01*
X165007380Y-89642860D02*
X165007380Y-89880950D01*
X165007380Y-89880950D02*
X165055000Y-90023810D01*
X165055000Y-90023810D02*
X165150240Y-90119050D01*
X165150240Y-90119050D02*
X165245480Y-90166670D01*
X165245480Y-90166670D02*
X165435950Y-90214290D01*
X165435950Y-90214290D02*
X165578810Y-90214290D01*
X165578810Y-90214290D02*
X165769290Y-90166670D01*
X165769290Y-90166670D02*
X165864520Y-90119050D01*
X165864520Y-90119050D02*
X165959760Y-90023810D01*
X165959760Y-90023810D02*
X166007380Y-89880950D01*
X166007380Y-89880950D02*
X166007380Y-89642860D01*
X165007380Y-90500000D02*
X166007380Y-90833330D01*
X166007380Y-90833330D02*
X165007380Y-91166670D01*
X166007380Y-91500000D02*
X165007380Y-91500000D01*
D11*
X143685000Y-77842860D02*
X143637380Y-77757140D01*
X143637380Y-77757140D02*
X143637380Y-77628570D01*
X143637380Y-77628570D02*
X143685000Y-77500000D01*
X143685000Y-77500000D02*
X143780240Y-77414290D01*
X143780240Y-77414290D02*
X143875480Y-77371430D01*
X143875480Y-77371430D02*
X144065950Y-77328570D01*
X144065950Y-77328570D02*
X144208810Y-77328570D01*
X144208810Y-77328570D02*
X144399290Y-77371430D01*
X144399290Y-77371430D02*
X144494520Y-77414290D01*
X144494520Y-77414290D02*
X144589760Y-77500000D01*
X144589760Y-77500000D02*
X144637380Y-77628570D01*
X144637380Y-77628570D02*
X144637380Y-77714290D01*
X144637380Y-77714290D02*
X144589760Y-77842860D01*
X144589760Y-77842860D02*
X144542140Y-77885710D01*
X144542140Y-77885710D02*
X144208810Y-77885710D01*
X144208810Y-77885710D02*
X144208810Y-77714290D01*
X144637380Y-78271430D02*
X143637380Y-78271430D01*
X143637380Y-78271430D02*
X143637380Y-78614290D01*
X143637380Y-78614290D02*
X143685000Y-78700000D01*
X143685000Y-78700000D02*
X143732620Y-78742860D01*
X143732620Y-78742860D02*
X143827860Y-78785710D01*
X143827860Y-78785710D02*
X143970710Y-78785710D01*
X143970710Y-78785710D02*
X144065950Y-78742860D01*
X144065950Y-78742860D02*
X144113570Y-78700000D01*
X144113570Y-78700000D02*
X144161190Y-78614290D01*
X144161190Y-78614290D02*
X144161190Y-78271430D01*
X144637380Y-79642860D02*
X144637380Y-79128570D01*
X144637380Y-79385710D02*
X143637380Y-79385710D01*
X143637380Y-79385710D02*
X143780240Y-79300000D01*
X143780240Y-79300000D02*
X143875480Y-79214290D01*
X143875480Y-79214290D02*
X143923100Y-79128570D01*
X143732620Y-79985710D02*
X143685000Y-80028570D01*
X143685000Y-80028570D02*
X143637380Y-80114290D01*
X143637380Y-80114290D02*
X143637380Y-80328570D01*
X143637380Y-80328570D02*
X143685000Y-80414290D01*
X143685000Y-80414290D02*
X143732620Y-80457140D01*
X143732620Y-80457140D02*
X143827860Y-80500000D01*
X143827860Y-80500000D02*
X143923100Y-80500000D01*
X143923100Y-80500000D02*
X144065950Y-80457140D01*
X144065950Y-80457140D02*
X144637380Y-79942860D01*
X144637380Y-79942860D02*
X144637380Y-80500000D01*
X144542140Y-80885710D02*
X144589760Y-80928570D01*
X144589760Y-80928570D02*
X144637380Y-80885710D01*
X144637380Y-80885710D02*
X144589760Y-80842860D01*
X144589760Y-80842860D02*
X144542140Y-80885710D01*
X144542140Y-80885710D02*
X144637380Y-80885710D01*
X144018330Y-80885710D02*
X144065950Y-80928570D01*
X144065950Y-80928570D02*
X144113570Y-80885710D01*
X144113570Y-80885710D02*
X144065950Y-80842860D01*
X144065950Y-80842860D02*
X144018330Y-80885710D01*
X144018330Y-80885710D02*
X144113570Y-80885710D01*
X144637380Y-82000000D02*
X143637380Y-82000000D01*
X143637380Y-82000000D02*
X143637380Y-82214290D01*
X143637380Y-82214290D02*
X143685000Y-82342860D01*
X143685000Y-82342860D02*
X143780240Y-82428570D01*
X143780240Y-82428570D02*
X143875480Y-82471430D01*
X143875480Y-82471430D02*
X144065950Y-82514290D01*
X144065950Y-82514290D02*
X144208810Y-82514290D01*
X144208810Y-82514290D02*
X144399290Y-82471430D01*
X144399290Y-82471430D02*
X144494520Y-82428570D01*
X144494520Y-82428570D02*
X144589760Y-82342860D01*
X144589760Y-82342860D02*
X144637380Y-82214290D01*
X144637380Y-82214290D02*
X144637380Y-82000000D01*
X143637380Y-83071430D02*
X143637380Y-83157140D01*
X143637380Y-83157140D02*
X143685000Y-83242860D01*
X143685000Y-83242860D02*
X143732620Y-83285710D01*
X143732620Y-83285710D02*
X143827860Y-83328570D01*
X143827860Y-83328570D02*
X144018330Y-83371430D01*
X144018330Y-83371430D02*
X144256430Y-83371430D01*
X144256430Y-83371430D02*
X144446900Y-83328570D01*
X144446900Y-83328570D02*
X144542140Y-83285710D01*
X144542140Y-83285710D02*
X144589760Y-83242860D01*
X144589760Y-83242860D02*
X144637380Y-83157140D01*
X144637380Y-83157140D02*
X144637380Y-83071430D01*
X144637380Y-83071430D02*
X144589760Y-82985710D01*
X144589760Y-82985710D02*
X144542140Y-82942860D01*
X144542140Y-82942860D02*
X144446900Y-82900000D01*
X144446900Y-82900000D02*
X144256430Y-82857140D01*
X144256430Y-82857140D02*
X144018330Y-82857140D01*
X144018330Y-82857140D02*
X143827860Y-82900000D01*
X143827860Y-82900000D02*
X143732620Y-82942860D01*
X143732620Y-82942860D02*
X143685000Y-82985710D01*
X143685000Y-82985710D02*
X143637380Y-83071430D01*
X144256430Y-83757140D02*
X144256430Y-84442860D01*
X144637380Y-84100000D02*
X143875480Y-84100000D01*
X143685000Y-86028570D02*
X143637380Y-85942860D01*
X143637380Y-85942860D02*
X143637380Y-85814290D01*
X143637380Y-85814290D02*
X143685000Y-85685710D01*
X143685000Y-85685710D02*
X143780240Y-85600000D01*
X143780240Y-85600000D02*
X143875480Y-85557140D01*
X143875480Y-85557140D02*
X144065950Y-85514290D01*
X144065950Y-85514290D02*
X144208810Y-85514290D01*
X144208810Y-85514290D02*
X144399290Y-85557140D01*
X144399290Y-85557140D02*
X144494520Y-85600000D01*
X144494520Y-85600000D02*
X144589760Y-85685710D01*
X144589760Y-85685710D02*
X144637380Y-85814290D01*
X144637380Y-85814290D02*
X144637380Y-85900000D01*
X144637380Y-85900000D02*
X144589760Y-86028570D01*
X144589760Y-86028570D02*
X144542140Y-86071430D01*
X144542140Y-86071430D02*
X144208810Y-86071430D01*
X144208810Y-86071430D02*
X144208810Y-85900000D01*
X144637380Y-86457140D02*
X143637380Y-86457140D01*
X143637380Y-86457140D02*
X143637380Y-86800000D01*
X143637380Y-86800000D02*
X143685000Y-86885710D01*
X143685000Y-86885710D02*
X143732620Y-86928570D01*
X143732620Y-86928570D02*
X143827860Y-86971430D01*
X143827860Y-86971430D02*
X143970710Y-86971430D01*
X143970710Y-86971430D02*
X144065950Y-86928570D01*
X144065950Y-86928570D02*
X144113570Y-86885710D01*
X144113570Y-86885710D02*
X144161190Y-86800000D01*
X144161190Y-86800000D02*
X144161190Y-86457140D01*
X144637380Y-87828570D02*
X144637380Y-87314290D01*
X144637380Y-87571430D02*
X143637380Y-87571430D01*
X143637380Y-87571430D02*
X143780240Y-87485710D01*
X143780240Y-87485710D02*
X143875480Y-87400000D01*
X143875480Y-87400000D02*
X143923100Y-87314290D01*
X143637380Y-88600000D02*
X143637380Y-88428570D01*
X143637380Y-88428570D02*
X143685000Y-88342860D01*
X143685000Y-88342860D02*
X143732620Y-88300000D01*
X143732620Y-88300000D02*
X143875480Y-88214290D01*
X143875480Y-88214290D02*
X144065950Y-88171430D01*
X144065950Y-88171430D02*
X144446900Y-88171430D01*
X144446900Y-88171430D02*
X144542140Y-88214290D01*
X144542140Y-88214290D02*
X144589760Y-88257140D01*
X144589760Y-88257140D02*
X144637380Y-88342860D01*
X144637380Y-88342860D02*
X144637380Y-88514290D01*
X144637380Y-88514290D02*
X144589760Y-88600000D01*
X144589760Y-88600000D02*
X144542140Y-88642860D01*
X144542140Y-88642860D02*
X144446900Y-88685710D01*
X144446900Y-88685710D02*
X144208810Y-88685710D01*
X144208810Y-88685710D02*
X144113570Y-88642860D01*
X144113570Y-88642860D02*
X144065950Y-88600000D01*
X144065950Y-88600000D02*
X144018330Y-88514290D01*
X144018330Y-88514290D02*
X144018330Y-88342860D01*
X144018330Y-88342860D02*
X144065950Y-88257140D01*
X144065950Y-88257140D02*
X144113570Y-88214290D01*
X144113570Y-88214290D02*
X144208810Y-88171430D01*
X144542140Y-89071430D02*
X144589760Y-89114290D01*
X144589760Y-89114290D02*
X144637380Y-89071430D01*
X144637380Y-89071430D02*
X144589760Y-89028570D01*
X144589760Y-89028570D02*
X144542140Y-89071430D01*
X144542140Y-89071430D02*
X144637380Y-89071430D01*
X144018330Y-89071430D02*
X144065950Y-89114290D01*
X144065950Y-89114290D02*
X144113570Y-89071430D01*
X144113570Y-89071430D02*
X144065950Y-89028570D01*
X144065950Y-89028570D02*
X144018330Y-89071430D01*
X144018330Y-89071430D02*
X144113570Y-89071430D01*
X144637380Y-90185710D02*
X143637380Y-90185710D01*
X143637380Y-90185710D02*
X143637380Y-90400000D01*
X143637380Y-90400000D02*
X143685000Y-90528570D01*
X143685000Y-90528570D02*
X143780240Y-90614290D01*
X143780240Y-90614290D02*
X143875480Y-90657140D01*
X143875480Y-90657140D02*
X144065950Y-90700000D01*
X144065950Y-90700000D02*
X144208810Y-90700000D01*
X144208810Y-90700000D02*
X144399290Y-90657140D01*
X144399290Y-90657140D02*
X144494520Y-90614290D01*
X144494520Y-90614290D02*
X144589760Y-90528570D01*
X144589760Y-90528570D02*
X144637380Y-90400000D01*
X144637380Y-90400000D02*
X144637380Y-90185710D01*
X143732620Y-91042860D02*
X143685000Y-91085710D01*
X143685000Y-91085710D02*
X143637380Y-91171430D01*
X143637380Y-91171430D02*
X143637380Y-91385710D01*
X143637380Y-91385710D02*
X143685000Y-91471430D01*
X143685000Y-91471430D02*
X143732620Y-91514290D01*
X143732620Y-91514290D02*
X143827860Y-91557140D01*
X143827860Y-91557140D02*
X143923100Y-91557140D01*
X143923100Y-91557140D02*
X144065950Y-91514290D01*
X144065950Y-91514290D02*
X144637380Y-91000000D01*
X144637380Y-91000000D02*
X144637380Y-91557140D01*
X144256430Y-91942860D02*
X144256430Y-92628570D01*
X144637380Y-92285710D02*
X143875480Y-92285710D01*
X145295000Y-77842860D02*
X145247380Y-77757140D01*
X145247380Y-77757140D02*
X145247380Y-77628570D01*
X145247380Y-77628570D02*
X145295000Y-77500000D01*
X145295000Y-77500000D02*
X145390240Y-77414290D01*
X145390240Y-77414290D02*
X145485480Y-77371430D01*
X145485480Y-77371430D02*
X145675950Y-77328570D01*
X145675950Y-77328570D02*
X145818810Y-77328570D01*
X145818810Y-77328570D02*
X146009290Y-77371430D01*
X146009290Y-77371430D02*
X146104520Y-77414290D01*
X146104520Y-77414290D02*
X146199760Y-77500000D01*
X146199760Y-77500000D02*
X146247380Y-77628570D01*
X146247380Y-77628570D02*
X146247380Y-77714290D01*
X146247380Y-77714290D02*
X146199760Y-77842860D01*
X146199760Y-77842860D02*
X146152140Y-77885710D01*
X146152140Y-77885710D02*
X145818810Y-77885710D01*
X145818810Y-77885710D02*
X145818810Y-77714290D01*
X146247380Y-78271430D02*
X145247380Y-78271430D01*
X145247380Y-78271430D02*
X145247380Y-78614290D01*
X145247380Y-78614290D02*
X145295000Y-78700000D01*
X145295000Y-78700000D02*
X145342620Y-78742860D01*
X145342620Y-78742860D02*
X145437860Y-78785710D01*
X145437860Y-78785710D02*
X145580710Y-78785710D01*
X145580710Y-78785710D02*
X145675950Y-78742860D01*
X145675950Y-78742860D02*
X145723570Y-78700000D01*
X145723570Y-78700000D02*
X145771190Y-78614290D01*
X145771190Y-78614290D02*
X145771190Y-78271430D01*
X146247380Y-79642860D02*
X146247380Y-79128570D01*
X146247380Y-79385710D02*
X145247380Y-79385710D01*
X145247380Y-79385710D02*
X145390240Y-79300000D01*
X145390240Y-79300000D02*
X145485480Y-79214290D01*
X145485480Y-79214290D02*
X145533100Y-79128570D01*
X145247380Y-79942860D02*
X145247380Y-80500000D01*
X145247380Y-80500000D02*
X145628330Y-80200000D01*
X145628330Y-80200000D02*
X145628330Y-80328570D01*
X145628330Y-80328570D02*
X145675950Y-80414290D01*
X145675950Y-80414290D02*
X145723570Y-80457140D01*
X145723570Y-80457140D02*
X145818810Y-80500000D01*
X145818810Y-80500000D02*
X146056900Y-80500000D01*
X146056900Y-80500000D02*
X146152140Y-80457140D01*
X146152140Y-80457140D02*
X146199760Y-80414290D01*
X146199760Y-80414290D02*
X146247380Y-80328570D01*
X146247380Y-80328570D02*
X146247380Y-80071430D01*
X146247380Y-80071430D02*
X146199760Y-79985710D01*
X146199760Y-79985710D02*
X146152140Y-79942860D01*
X146152140Y-80885710D02*
X146199760Y-80928570D01*
X146199760Y-80928570D02*
X146247380Y-80885710D01*
X146247380Y-80885710D02*
X146199760Y-80842860D01*
X146199760Y-80842860D02*
X146152140Y-80885710D01*
X146152140Y-80885710D02*
X146247380Y-80885710D01*
X145628330Y-80885710D02*
X145675950Y-80928570D01*
X145675950Y-80928570D02*
X145723570Y-80885710D01*
X145723570Y-80885710D02*
X145675950Y-80842860D01*
X145675950Y-80842860D02*
X145628330Y-80885710D01*
X145628330Y-80885710D02*
X145723570Y-80885710D01*
X146247380Y-82000000D02*
X145247380Y-82000000D01*
X145247380Y-82000000D02*
X145247380Y-82214290D01*
X145247380Y-82214290D02*
X145295000Y-82342860D01*
X145295000Y-82342860D02*
X145390240Y-82428570D01*
X145390240Y-82428570D02*
X145485480Y-82471430D01*
X145485480Y-82471430D02*
X145675950Y-82514290D01*
X145675950Y-82514290D02*
X145818810Y-82514290D01*
X145818810Y-82514290D02*
X146009290Y-82471430D01*
X146009290Y-82471430D02*
X146104520Y-82428570D01*
X146104520Y-82428570D02*
X146199760Y-82342860D01*
X146199760Y-82342860D02*
X146247380Y-82214290D01*
X146247380Y-82214290D02*
X146247380Y-82000000D01*
X145247380Y-83071430D02*
X145247380Y-83157140D01*
X145247380Y-83157140D02*
X145295000Y-83242860D01*
X145295000Y-83242860D02*
X145342620Y-83285710D01*
X145342620Y-83285710D02*
X145437860Y-83328570D01*
X145437860Y-83328570D02*
X145628330Y-83371430D01*
X145628330Y-83371430D02*
X145866430Y-83371430D01*
X145866430Y-83371430D02*
X146056900Y-83328570D01*
X146056900Y-83328570D02*
X146152140Y-83285710D01*
X146152140Y-83285710D02*
X146199760Y-83242860D01*
X146199760Y-83242860D02*
X146247380Y-83157140D01*
X146247380Y-83157140D02*
X146247380Y-83071430D01*
X146247380Y-83071430D02*
X146199760Y-82985710D01*
X146199760Y-82985710D02*
X146152140Y-82942860D01*
X146152140Y-82942860D02*
X146056900Y-82900000D01*
X146056900Y-82900000D02*
X145866430Y-82857140D01*
X145866430Y-82857140D02*
X145628330Y-82857140D01*
X145628330Y-82857140D02*
X145437860Y-82900000D01*
X145437860Y-82900000D02*
X145342620Y-82942860D01*
X145342620Y-82942860D02*
X145295000Y-82985710D01*
X145295000Y-82985710D02*
X145247380Y-83071430D01*
X145866430Y-83757140D02*
X145866430Y-84442860D01*
X145295000Y-86028570D02*
X145247380Y-85942860D01*
X145247380Y-85942860D02*
X145247380Y-85814290D01*
X145247380Y-85814290D02*
X145295000Y-85685710D01*
X145295000Y-85685710D02*
X145390240Y-85600000D01*
X145390240Y-85600000D02*
X145485480Y-85557140D01*
X145485480Y-85557140D02*
X145675950Y-85514290D01*
X145675950Y-85514290D02*
X145818810Y-85514290D01*
X145818810Y-85514290D02*
X146009290Y-85557140D01*
X146009290Y-85557140D02*
X146104520Y-85600000D01*
X146104520Y-85600000D02*
X146199760Y-85685710D01*
X146199760Y-85685710D02*
X146247380Y-85814290D01*
X146247380Y-85814290D02*
X146247380Y-85900000D01*
X146247380Y-85900000D02*
X146199760Y-86028570D01*
X146199760Y-86028570D02*
X146152140Y-86071430D01*
X146152140Y-86071430D02*
X145818810Y-86071430D01*
X145818810Y-86071430D02*
X145818810Y-85900000D01*
X146247380Y-86457140D02*
X145247380Y-86457140D01*
X145247380Y-86457140D02*
X145247380Y-86800000D01*
X145247380Y-86800000D02*
X145295000Y-86885710D01*
X145295000Y-86885710D02*
X145342620Y-86928570D01*
X145342620Y-86928570D02*
X145437860Y-86971430D01*
X145437860Y-86971430D02*
X145580710Y-86971430D01*
X145580710Y-86971430D02*
X145675950Y-86928570D01*
X145675950Y-86928570D02*
X145723570Y-86885710D01*
X145723570Y-86885710D02*
X145771190Y-86800000D01*
X145771190Y-86800000D02*
X145771190Y-86457140D01*
X146247380Y-87828570D02*
X146247380Y-87314290D01*
X146247380Y-87571430D02*
X145247380Y-87571430D01*
X145247380Y-87571430D02*
X145390240Y-87485710D01*
X145390240Y-87485710D02*
X145485480Y-87400000D01*
X145485480Y-87400000D02*
X145533100Y-87314290D01*
X145247380Y-88128570D02*
X145247380Y-88728570D01*
X145247380Y-88728570D02*
X146247380Y-88342860D01*
X146152140Y-89071430D02*
X146199760Y-89114290D01*
X146199760Y-89114290D02*
X146247380Y-89071430D01*
X146247380Y-89071430D02*
X146199760Y-89028570D01*
X146199760Y-89028570D02*
X146152140Y-89071430D01*
X146152140Y-89071430D02*
X146247380Y-89071430D01*
X145628330Y-89071430D02*
X145675950Y-89114290D01*
X145675950Y-89114290D02*
X145723570Y-89071430D01*
X145723570Y-89071430D02*
X145675950Y-89028570D01*
X145675950Y-89028570D02*
X145628330Y-89071430D01*
X145628330Y-89071430D02*
X145723570Y-89071430D01*
X146247380Y-90185710D02*
X145247380Y-90185710D01*
X145247380Y-90185710D02*
X145247380Y-90400000D01*
X145247380Y-90400000D02*
X145295000Y-90528570D01*
X145295000Y-90528570D02*
X145390240Y-90614290D01*
X145390240Y-90614290D02*
X145485480Y-90657140D01*
X145485480Y-90657140D02*
X145675950Y-90700000D01*
X145675950Y-90700000D02*
X145818810Y-90700000D01*
X145818810Y-90700000D02*
X146009290Y-90657140D01*
X146009290Y-90657140D02*
X146104520Y-90614290D01*
X146104520Y-90614290D02*
X146199760Y-90528570D01*
X146199760Y-90528570D02*
X146247380Y-90400000D01*
X146247380Y-90400000D02*
X146247380Y-90185710D01*
X145342620Y-91042860D02*
X145295000Y-91085710D01*
X145295000Y-91085710D02*
X145247380Y-91171430D01*
X145247380Y-91171430D02*
X145247380Y-91385710D01*
X145247380Y-91385710D02*
X145295000Y-91471430D01*
X145295000Y-91471430D02*
X145342620Y-91514290D01*
X145342620Y-91514290D02*
X145437860Y-91557140D01*
X145437860Y-91557140D02*
X145533100Y-91557140D01*
X145533100Y-91557140D02*
X145675950Y-91514290D01*
X145675950Y-91514290D02*
X146247380Y-91000000D01*
X146247380Y-91000000D02*
X146247380Y-91557140D01*
X145866430Y-91942860D02*
X145866430Y-92628570D01*
X146905000Y-77821430D02*
X146857380Y-77735710D01*
X146857380Y-77735710D02*
X146857380Y-77607140D01*
X146857380Y-77607140D02*
X146905000Y-77478570D01*
X146905000Y-77478570D02*
X147000240Y-77392860D01*
X147000240Y-77392860D02*
X147095480Y-77350000D01*
X147095480Y-77350000D02*
X147285950Y-77307140D01*
X147285950Y-77307140D02*
X147428810Y-77307140D01*
X147428810Y-77307140D02*
X147619290Y-77350000D01*
X147619290Y-77350000D02*
X147714520Y-77392860D01*
X147714520Y-77392860D02*
X147809760Y-77478570D01*
X147809760Y-77478570D02*
X147857380Y-77607140D01*
X147857380Y-77607140D02*
X147857380Y-77692860D01*
X147857380Y-77692860D02*
X147809760Y-77821430D01*
X147809760Y-77821430D02*
X147762140Y-77864290D01*
X147762140Y-77864290D02*
X147428810Y-77864290D01*
X147428810Y-77864290D02*
X147428810Y-77692860D01*
X147857380Y-78250000D02*
X146857380Y-78250000D01*
X146857380Y-78250000D02*
X146857380Y-78592860D01*
X146857380Y-78592860D02*
X146905000Y-78678570D01*
X146905000Y-78678570D02*
X146952620Y-78721430D01*
X146952620Y-78721430D02*
X147047860Y-78764290D01*
X147047860Y-78764290D02*
X147190710Y-78764290D01*
X147190710Y-78764290D02*
X147285950Y-78721430D01*
X147285950Y-78721430D02*
X147333570Y-78678570D01*
X147333570Y-78678570D02*
X147381190Y-78592860D01*
X147381190Y-78592860D02*
X147381190Y-78250000D01*
X147857380Y-79621430D02*
X147857380Y-79107140D01*
X147857380Y-79364290D02*
X146857380Y-79364290D01*
X146857380Y-79364290D02*
X147000240Y-79278570D01*
X147000240Y-79278570D02*
X147095480Y-79192860D01*
X147095480Y-79192860D02*
X147143100Y-79107140D01*
X147190710Y-80392860D02*
X147857380Y-80392860D01*
X146809760Y-80178570D02*
X147524050Y-79964290D01*
X147524050Y-79964290D02*
X147524050Y-80521430D01*
X147762140Y-80864290D02*
X147809760Y-80907140D01*
X147809760Y-80907140D02*
X147857380Y-80864290D01*
X147857380Y-80864290D02*
X147809760Y-80821430D01*
X147809760Y-80821430D02*
X147762140Y-80864290D01*
X147762140Y-80864290D02*
X147857380Y-80864290D01*
X147238330Y-80864290D02*
X147285950Y-80907140D01*
X147285950Y-80907140D02*
X147333570Y-80864290D01*
X147333570Y-80864290D02*
X147285950Y-80821430D01*
X147285950Y-80821430D02*
X147238330Y-80864290D01*
X147238330Y-80864290D02*
X147333570Y-80864290D01*
X147762140Y-82492860D02*
X147809760Y-82450000D01*
X147809760Y-82450000D02*
X147857380Y-82321430D01*
X147857380Y-82321430D02*
X147857380Y-82235710D01*
X147857380Y-82235710D02*
X147809760Y-82107140D01*
X147809760Y-82107140D02*
X147714520Y-82021430D01*
X147714520Y-82021430D02*
X147619290Y-81978570D01*
X147619290Y-81978570D02*
X147428810Y-81935710D01*
X147428810Y-81935710D02*
X147285950Y-81935710D01*
X147285950Y-81935710D02*
X147095480Y-81978570D01*
X147095480Y-81978570D02*
X147000240Y-82021430D01*
X147000240Y-82021430D02*
X146905000Y-82107140D01*
X146905000Y-82107140D02*
X146857380Y-82235710D01*
X146857380Y-82235710D02*
X146857380Y-82321430D01*
X146857380Y-82321430D02*
X146905000Y-82450000D01*
X146905000Y-82450000D02*
X146952620Y-82492860D01*
X147857380Y-82878570D02*
X146857380Y-82878570D01*
X147857380Y-83392860D02*
X147285950Y-83007140D01*
X146857380Y-83392860D02*
X147428810Y-82878570D01*
X147476430Y-83778570D02*
X147476430Y-84464290D01*
X147857380Y-84121430D02*
X147095480Y-84121430D01*
X146905000Y-86050000D02*
X146857380Y-85964290D01*
X146857380Y-85964290D02*
X146857380Y-85835710D01*
X146857380Y-85835710D02*
X146905000Y-85707140D01*
X146905000Y-85707140D02*
X147000240Y-85621430D01*
X147000240Y-85621430D02*
X147095480Y-85578570D01*
X147095480Y-85578570D02*
X147285950Y-85535710D01*
X147285950Y-85535710D02*
X147428810Y-85535710D01*
X147428810Y-85535710D02*
X147619290Y-85578570D01*
X147619290Y-85578570D02*
X147714520Y-85621430D01*
X147714520Y-85621430D02*
X147809760Y-85707140D01*
X147809760Y-85707140D02*
X147857380Y-85835710D01*
X147857380Y-85835710D02*
X147857380Y-85921430D01*
X147857380Y-85921430D02*
X147809760Y-86050000D01*
X147809760Y-86050000D02*
X147762140Y-86092860D01*
X147762140Y-86092860D02*
X147428810Y-86092860D01*
X147428810Y-86092860D02*
X147428810Y-85921430D01*
X147857380Y-86478570D02*
X146857380Y-86478570D01*
X146857380Y-86478570D02*
X146857380Y-86821430D01*
X146857380Y-86821430D02*
X146905000Y-86907140D01*
X146905000Y-86907140D02*
X146952620Y-86950000D01*
X146952620Y-86950000D02*
X147047860Y-86992860D01*
X147047860Y-86992860D02*
X147190710Y-86992860D01*
X147190710Y-86992860D02*
X147285950Y-86950000D01*
X147285950Y-86950000D02*
X147333570Y-86907140D01*
X147333570Y-86907140D02*
X147381190Y-86821430D01*
X147381190Y-86821430D02*
X147381190Y-86478570D01*
X147857380Y-87850000D02*
X147857380Y-87335710D01*
X147857380Y-87592860D02*
X146857380Y-87592860D01*
X146857380Y-87592860D02*
X147000240Y-87507140D01*
X147000240Y-87507140D02*
X147095480Y-87421430D01*
X147095480Y-87421430D02*
X147143100Y-87335710D01*
X147285950Y-88364290D02*
X147238330Y-88278570D01*
X147238330Y-88278570D02*
X147190710Y-88235710D01*
X147190710Y-88235710D02*
X147095480Y-88192860D01*
X147095480Y-88192860D02*
X147047860Y-88192860D01*
X147047860Y-88192860D02*
X146952620Y-88235710D01*
X146952620Y-88235710D02*
X146905000Y-88278570D01*
X146905000Y-88278570D02*
X146857380Y-88364290D01*
X146857380Y-88364290D02*
X146857380Y-88535710D01*
X146857380Y-88535710D02*
X146905000Y-88621430D01*
X146905000Y-88621430D02*
X146952620Y-88664290D01*
X146952620Y-88664290D02*
X147047860Y-88707140D01*
X147047860Y-88707140D02*
X147095480Y-88707140D01*
X147095480Y-88707140D02*
X147190710Y-88664290D01*
X147190710Y-88664290D02*
X147238330Y-88621430D01*
X147238330Y-88621430D02*
X147285950Y-88535710D01*
X147285950Y-88535710D02*
X147285950Y-88364290D01*
X147285950Y-88364290D02*
X147333570Y-88278570D01*
X147333570Y-88278570D02*
X147381190Y-88235710D01*
X147381190Y-88235710D02*
X147476430Y-88192860D01*
X147476430Y-88192860D02*
X147666900Y-88192860D01*
X147666900Y-88192860D02*
X147762140Y-88235710D01*
X147762140Y-88235710D02*
X147809760Y-88278570D01*
X147809760Y-88278570D02*
X147857380Y-88364290D01*
X147857380Y-88364290D02*
X147857380Y-88535710D01*
X147857380Y-88535710D02*
X147809760Y-88621430D01*
X147809760Y-88621430D02*
X147762140Y-88664290D01*
X147762140Y-88664290D02*
X147666900Y-88707140D01*
X147666900Y-88707140D02*
X147476430Y-88707140D01*
X147476430Y-88707140D02*
X147381190Y-88664290D01*
X147381190Y-88664290D02*
X147333570Y-88621430D01*
X147333570Y-88621430D02*
X147285950Y-88535710D01*
X147762140Y-89092860D02*
X147809760Y-89135710D01*
X147809760Y-89135710D02*
X147857380Y-89092860D01*
X147857380Y-89092860D02*
X147809760Y-89050000D01*
X147809760Y-89050000D02*
X147762140Y-89092860D01*
X147762140Y-89092860D02*
X147857380Y-89092860D01*
X147238330Y-89092860D02*
X147285950Y-89135710D01*
X147285950Y-89135710D02*
X147333570Y-89092860D01*
X147333570Y-89092860D02*
X147285950Y-89050000D01*
X147285950Y-89050000D02*
X147238330Y-89092860D01*
X147238330Y-89092860D02*
X147333570Y-89092860D01*
X147857380Y-90207140D02*
X146857380Y-90207140D01*
X146857380Y-90207140D02*
X146857380Y-90421430D01*
X146857380Y-90421430D02*
X146905000Y-90550000D01*
X146905000Y-90550000D02*
X147000240Y-90635710D01*
X147000240Y-90635710D02*
X147095480Y-90678570D01*
X147095480Y-90678570D02*
X147285950Y-90721430D01*
X147285950Y-90721430D02*
X147428810Y-90721430D01*
X147428810Y-90721430D02*
X147619290Y-90678570D01*
X147619290Y-90678570D02*
X147714520Y-90635710D01*
X147714520Y-90635710D02*
X147809760Y-90550000D01*
X147809760Y-90550000D02*
X147857380Y-90421430D01*
X147857380Y-90421430D02*
X147857380Y-90207140D01*
X147857380Y-91578570D02*
X147857380Y-91064290D01*
X147857380Y-91321430D02*
X146857380Y-91321430D01*
X146857380Y-91321430D02*
X147000240Y-91235710D01*
X147000240Y-91235710D02*
X147095480Y-91150000D01*
X147095480Y-91150000D02*
X147143100Y-91064290D01*
X147476430Y-91964290D02*
X147476430Y-92650000D01*
X147857380Y-92307140D02*
X147095480Y-92307140D01*
X148515000Y-77821430D02*
X148467380Y-77735710D01*
X148467380Y-77735710D02*
X148467380Y-77607140D01*
X148467380Y-77607140D02*
X148515000Y-77478570D01*
X148515000Y-77478570D02*
X148610240Y-77392860D01*
X148610240Y-77392860D02*
X148705480Y-77350000D01*
X148705480Y-77350000D02*
X148895950Y-77307140D01*
X148895950Y-77307140D02*
X149038810Y-77307140D01*
X149038810Y-77307140D02*
X149229290Y-77350000D01*
X149229290Y-77350000D02*
X149324520Y-77392860D01*
X149324520Y-77392860D02*
X149419760Y-77478570D01*
X149419760Y-77478570D02*
X149467380Y-77607140D01*
X149467380Y-77607140D02*
X149467380Y-77692860D01*
X149467380Y-77692860D02*
X149419760Y-77821430D01*
X149419760Y-77821430D02*
X149372140Y-77864290D01*
X149372140Y-77864290D02*
X149038810Y-77864290D01*
X149038810Y-77864290D02*
X149038810Y-77692860D01*
X149467380Y-78250000D02*
X148467380Y-78250000D01*
X148467380Y-78250000D02*
X148467380Y-78592860D01*
X148467380Y-78592860D02*
X148515000Y-78678570D01*
X148515000Y-78678570D02*
X148562620Y-78721430D01*
X148562620Y-78721430D02*
X148657860Y-78764290D01*
X148657860Y-78764290D02*
X148800710Y-78764290D01*
X148800710Y-78764290D02*
X148895950Y-78721430D01*
X148895950Y-78721430D02*
X148943570Y-78678570D01*
X148943570Y-78678570D02*
X148991190Y-78592860D01*
X148991190Y-78592860D02*
X148991190Y-78250000D01*
X149467380Y-79621430D02*
X149467380Y-79107140D01*
X149467380Y-79364290D02*
X148467380Y-79364290D01*
X148467380Y-79364290D02*
X148610240Y-79278570D01*
X148610240Y-79278570D02*
X148705480Y-79192860D01*
X148705480Y-79192860D02*
X148753100Y-79107140D01*
X148467380Y-80435710D02*
X148467380Y-80007140D01*
X148467380Y-80007140D02*
X148943570Y-79964290D01*
X148943570Y-79964290D02*
X148895950Y-80007140D01*
X148895950Y-80007140D02*
X148848330Y-80092860D01*
X148848330Y-80092860D02*
X148848330Y-80307140D01*
X148848330Y-80307140D02*
X148895950Y-80392860D01*
X148895950Y-80392860D02*
X148943570Y-80435710D01*
X148943570Y-80435710D02*
X149038810Y-80478570D01*
X149038810Y-80478570D02*
X149276900Y-80478570D01*
X149276900Y-80478570D02*
X149372140Y-80435710D01*
X149372140Y-80435710D02*
X149419760Y-80392860D01*
X149419760Y-80392860D02*
X149467380Y-80307140D01*
X149467380Y-80307140D02*
X149467380Y-80092860D01*
X149467380Y-80092860D02*
X149419760Y-80007140D01*
X149419760Y-80007140D02*
X149372140Y-79964290D01*
X149372140Y-80864290D02*
X149419760Y-80907140D01*
X149419760Y-80907140D02*
X149467380Y-80864290D01*
X149467380Y-80864290D02*
X149419760Y-80821430D01*
X149419760Y-80821430D02*
X149372140Y-80864290D01*
X149372140Y-80864290D02*
X149467380Y-80864290D01*
X148848330Y-80864290D02*
X148895950Y-80907140D01*
X148895950Y-80907140D02*
X148943570Y-80864290D01*
X148943570Y-80864290D02*
X148895950Y-80821430D01*
X148895950Y-80821430D02*
X148848330Y-80864290D01*
X148848330Y-80864290D02*
X148943570Y-80864290D01*
X149372140Y-82492860D02*
X149419760Y-82450000D01*
X149419760Y-82450000D02*
X149467380Y-82321430D01*
X149467380Y-82321430D02*
X149467380Y-82235710D01*
X149467380Y-82235710D02*
X149419760Y-82107140D01*
X149419760Y-82107140D02*
X149324520Y-82021430D01*
X149324520Y-82021430D02*
X149229290Y-81978570D01*
X149229290Y-81978570D02*
X149038810Y-81935710D01*
X149038810Y-81935710D02*
X148895950Y-81935710D01*
X148895950Y-81935710D02*
X148705480Y-81978570D01*
X148705480Y-81978570D02*
X148610240Y-82021430D01*
X148610240Y-82021430D02*
X148515000Y-82107140D01*
X148515000Y-82107140D02*
X148467380Y-82235710D01*
X148467380Y-82235710D02*
X148467380Y-82321430D01*
X148467380Y-82321430D02*
X148515000Y-82450000D01*
X148515000Y-82450000D02*
X148562620Y-82492860D01*
X149467380Y-82878570D02*
X148467380Y-82878570D01*
X149467380Y-83392860D02*
X148895950Y-83007140D01*
X148467380Y-83392860D02*
X149038810Y-82878570D01*
X149086430Y-83778570D02*
X149086430Y-84464290D01*
X148515000Y-86050000D02*
X148467380Y-85964290D01*
X148467380Y-85964290D02*
X148467380Y-85835710D01*
X148467380Y-85835710D02*
X148515000Y-85707140D01*
X148515000Y-85707140D02*
X148610240Y-85621430D01*
X148610240Y-85621430D02*
X148705480Y-85578570D01*
X148705480Y-85578570D02*
X148895950Y-85535710D01*
X148895950Y-85535710D02*
X149038810Y-85535710D01*
X149038810Y-85535710D02*
X149229290Y-85578570D01*
X149229290Y-85578570D02*
X149324520Y-85621430D01*
X149324520Y-85621430D02*
X149419760Y-85707140D01*
X149419760Y-85707140D02*
X149467380Y-85835710D01*
X149467380Y-85835710D02*
X149467380Y-85921430D01*
X149467380Y-85921430D02*
X149419760Y-86050000D01*
X149419760Y-86050000D02*
X149372140Y-86092860D01*
X149372140Y-86092860D02*
X149038810Y-86092860D01*
X149038810Y-86092860D02*
X149038810Y-85921430D01*
X149467380Y-86478570D02*
X148467380Y-86478570D01*
X148467380Y-86478570D02*
X148467380Y-86821430D01*
X148467380Y-86821430D02*
X148515000Y-86907140D01*
X148515000Y-86907140D02*
X148562620Y-86950000D01*
X148562620Y-86950000D02*
X148657860Y-86992860D01*
X148657860Y-86992860D02*
X148800710Y-86992860D01*
X148800710Y-86992860D02*
X148895950Y-86950000D01*
X148895950Y-86950000D02*
X148943570Y-86907140D01*
X148943570Y-86907140D02*
X148991190Y-86821430D01*
X148991190Y-86821430D02*
X148991190Y-86478570D01*
X149467380Y-87850000D02*
X149467380Y-87335710D01*
X149467380Y-87592860D02*
X148467380Y-87592860D01*
X148467380Y-87592860D02*
X148610240Y-87507140D01*
X148610240Y-87507140D02*
X148705480Y-87421430D01*
X148705480Y-87421430D02*
X148753100Y-87335710D01*
X149467380Y-88278570D02*
X149467380Y-88450000D01*
X149467380Y-88450000D02*
X149419760Y-88535710D01*
X149419760Y-88535710D02*
X149372140Y-88578570D01*
X149372140Y-88578570D02*
X149229290Y-88664290D01*
X149229290Y-88664290D02*
X149038810Y-88707140D01*
X149038810Y-88707140D02*
X148657860Y-88707140D01*
X148657860Y-88707140D02*
X148562620Y-88664290D01*
X148562620Y-88664290D02*
X148515000Y-88621430D01*
X148515000Y-88621430D02*
X148467380Y-88535710D01*
X148467380Y-88535710D02*
X148467380Y-88364290D01*
X148467380Y-88364290D02*
X148515000Y-88278570D01*
X148515000Y-88278570D02*
X148562620Y-88235710D01*
X148562620Y-88235710D02*
X148657860Y-88192860D01*
X148657860Y-88192860D02*
X148895950Y-88192860D01*
X148895950Y-88192860D02*
X148991190Y-88235710D01*
X148991190Y-88235710D02*
X149038810Y-88278570D01*
X149038810Y-88278570D02*
X149086430Y-88364290D01*
X149086430Y-88364290D02*
X149086430Y-88535710D01*
X149086430Y-88535710D02*
X149038810Y-88621430D01*
X149038810Y-88621430D02*
X148991190Y-88664290D01*
X148991190Y-88664290D02*
X148895950Y-88707140D01*
X149372140Y-89092860D02*
X149419760Y-89135710D01*
X149419760Y-89135710D02*
X149467380Y-89092860D01*
X149467380Y-89092860D02*
X149419760Y-89050000D01*
X149419760Y-89050000D02*
X149372140Y-89092860D01*
X149372140Y-89092860D02*
X149467380Y-89092860D01*
X148848330Y-89092860D02*
X148895950Y-89135710D01*
X148895950Y-89135710D02*
X148943570Y-89092860D01*
X148943570Y-89092860D02*
X148895950Y-89050000D01*
X148895950Y-89050000D02*
X148848330Y-89092860D01*
X148848330Y-89092860D02*
X148943570Y-89092860D01*
X149467380Y-90207140D02*
X148467380Y-90207140D01*
X148467380Y-90207140D02*
X148467380Y-90421430D01*
X148467380Y-90421430D02*
X148515000Y-90550000D01*
X148515000Y-90550000D02*
X148610240Y-90635710D01*
X148610240Y-90635710D02*
X148705480Y-90678570D01*
X148705480Y-90678570D02*
X148895950Y-90721430D01*
X148895950Y-90721430D02*
X149038810Y-90721430D01*
X149038810Y-90721430D02*
X149229290Y-90678570D01*
X149229290Y-90678570D02*
X149324520Y-90635710D01*
X149324520Y-90635710D02*
X149419760Y-90550000D01*
X149419760Y-90550000D02*
X149467380Y-90421430D01*
X149467380Y-90421430D02*
X149467380Y-90207140D01*
X149467380Y-91578570D02*
X149467380Y-91064290D01*
X149467380Y-91321430D02*
X148467380Y-91321430D01*
X148467380Y-91321430D02*
X148610240Y-91235710D01*
X148610240Y-91235710D02*
X148705480Y-91150000D01*
X148705480Y-91150000D02*
X148753100Y-91064290D01*
X149086430Y-91964290D02*
X149086430Y-92650000D01*
D12*
X158966670Y-84133330D02*
X158633330Y-83900000D01*
X158966670Y-83733330D02*
X158266670Y-83733330D01*
X158266670Y-83733330D02*
X158266670Y-84000000D01*
X158266670Y-84000000D02*
X158300000Y-84066670D01*
X158300000Y-84066670D02*
X158333330Y-84100000D01*
X158333330Y-84100000D02*
X158400000Y-84133330D01*
X158400000Y-84133330D02*
X158500000Y-84133330D01*
X158500000Y-84133330D02*
X158566670Y-84100000D01*
X158566670Y-84100000D02*
X158600000Y-84066670D01*
X158600000Y-84066670D02*
X158633330Y-84000000D01*
X158633330Y-84000000D02*
X158633330Y-83733330D01*
X158933330Y-84700000D02*
X158966670Y-84633330D01*
X158966670Y-84633330D02*
X158966670Y-84500000D01*
X158966670Y-84500000D02*
X158933330Y-84433330D01*
X158933330Y-84433330D02*
X158866670Y-84400000D01*
X158866670Y-84400000D02*
X158600000Y-84400000D01*
X158600000Y-84400000D02*
X158533330Y-84433330D01*
X158533330Y-84433330D02*
X158500000Y-84500000D01*
X158500000Y-84500000D02*
X158500000Y-84633330D01*
X158500000Y-84633330D02*
X158533330Y-84700000D01*
X158533330Y-84700000D02*
X158600000Y-84733330D01*
X158600000Y-84733330D02*
X158666670Y-84733330D01*
X158666670Y-84733330D02*
X158733330Y-84400000D01*
X158500000Y-84966670D02*
X158966670Y-85133330D01*
X158966670Y-85133330D02*
X158500000Y-85300000D01*
X158766670Y-86066670D02*
X158766670Y-86400000D01*
X158966670Y-86000000D02*
X158266670Y-86233330D01*
X158266670Y-86233330D02*
X158966670Y-86466670D01*
M02*
